<?xml version="1.0" encoding="UTF-8" standalone="no"?>
<!-- Created with Inkscape (http://www.inkscape.org/) -->
<svg
   xmlns:dc="http://purl.org/dc/elements/1.1/"
   xmlns:cc="http://web.resource.org/cc/"
   xmlns:rdf="http://www.w3.org/1999/02/22-rdf-syntax-ns#"
   xmlns:svg="http://www.w3.org/2000/svg"
   xmlns="http://www.w3.org/2000/svg"
   xmlns:xlink="http://www.w3.org/1999/xlink"
   xmlns:sodipodi="http://sodipodi.sourceforge.net/DTD/sodipodi-0.dtd"
   xmlns:inkscape="http://www.inkscape.org/namespaces/inkscape"
   width="48"
   height="48"
   id="svg11088"
   sodipodi:version="0.32"
   inkscape:version="0.45"
   version="1.0"
   sodipodi:docbase="/var/www/html/proyecto9/images/default"
   sodipodi:docname="personal.svg"
   inkscape:output_extension="org.inkscape.output.svg.inkscape"
   inkscape:export-filename="/var/www/html/proyecto9/images/personal.png"
   inkscape:export-xdpi="90"
   inkscape:export-ydpi="90"
   sodipodi:modified="TRUE">
  <defs
     id="defs11090">
    <linearGradient
       id="XMLID_28_"
       gradientUnits="userSpaceOnUse"
       x1="62.9995"
       y1="57"
       x2="62.9995"
       y2="107">
		<stop
   offset="0"
   style="stop-color:#F8A364"
   id="stop18594" />

		<stop
   offset="0.5697"
   style="stop-color:#F8A053"
   id="stop18596" />

		<stop
   offset="1"
   style="stop-color:#F89F4C"
   id="stop18598" />

	</linearGradient>
    <linearGradient
       id="XMLID_27_"
       gradientUnits="userSpaceOnUse"
       x1="41.9995"
       y1="40"
       x2="41.9995"
       y2="108">
		<stop
   offset="0"
   style="stop-color:#3C3C3C"
   id="stop18551" />

		<stop
   offset="0.1364"
   style="stop-color:#363636"
   id="stop18553" />

		<stop
   offset="0.6449"
   style="stop-color:#232323"
   id="stop18555" />

		<stop
   offset="1"
   style="stop-color:#1C1C1C"
   id="stop18557" />

	</linearGradient>
    <linearGradient
       id="XMLID_26_"
       gradientUnits="userSpaceOnUse"
       x1="104.9995"
       y1="47.3906"
       x2="104.9995"
       y2="114.3159">
		<stop
   offset="0"
   style="stop-color:#3274C1"
   id="stop18538" />

		<stop
   offset="0.3905"
   style="stop-color:#3F90D1"
   id="stop18540" />

		<stop
   offset="0.7497"
   style="stop-color:#47A3DB"
   id="stop18542" />

		<stop
   offset="1"
   style="stop-color:#4AAADF"
   id="stop18544" />

	</linearGradient>
    <linearGradient
       id="XMLID_25_"
       gradientUnits="userSpaceOnUse"
       x1="83.9995"
       y1="70.7656"
       x2="83.9995"
       y2="113.3209">
		<stop
   offset="0"
   style="stop-color:#E00000"
   id="stop18529" />

		<stop
   offset="0.4113"
   style="stop-color:#E80000"
   id="stop18531" />

		<stop
   offset="1"
   style="stop-color:#EF0000"
   id="stop18533" />

	</linearGradient>
    <linearGradient
       id="XMLID_24_"
       gradientUnits="userSpaceOnUse"
       x1="62.9995"
       y1="56"
       x2="62.9995"
       y2="113">
		<stop
   offset="0"
   style="stop-color:#F36700"
   id="stop18518" />

		<stop
   offset="0.3322"
   style="stop-color:#F67C00"
   id="stop18520" />

		<stop
   offset="0.7254"
   style="stop-color:#F88F00"
   id="stop18522" />

		<stop
   offset="1"
   style="stop-color:#F99600"
   id="stop18524" />

	</linearGradient>
    <linearGradient
       id="XMLID_23_"
       gradientUnits="userSpaceOnUse"
       x1="79.4995"
       y1="41.0361"
       x2="79.4995"
       y2="111.4967">
		<stop
   offset="0"
   style="stop-color:#3C3C3C"
   id="stop18507" />

		<stop
   offset="0.1364"
   style="stop-color:#363636"
   id="stop18509" />

		<stop
   offset="0.6449"
   style="stop-color:#232323"
   id="stop18511" />

		<stop
   offset="1"
   style="stop-color:#1C1C1C"
   id="stop18513" />

	</linearGradient>
    <linearGradient
       id="XMLID_22_"
       gradientUnits="userSpaceOnUse"
       x1="85.4995"
       y1="20"
       x2="85.4995"
       y2="80">
		<stop
   offset="0"
   style="stop-color:#B0B0B0"
   id="stop18316" />

		<stop
   offset="0.4113"
   style="stop-color:#A8A8A8"
   id="stop18318" />

		<stop
   offset="1"
   style="stop-color:#A1A2A1"
   id="stop18320" />

	</linearGradient>
    <linearGradient
       id="XMLID_21_"
       gradientUnits="userSpaceOnUse"
       x1="58.4995"
       y1="20"
       x2="58.4995"
       y2="80">
		<stop
   offset="0"
   style="stop-color:#B0B0B0"
   id="stop18307" />

		<stop
   offset="0.4113"
   style="stop-color:#A8A8A8"
   id="stop18309" />

		<stop
   offset="1"
   style="stop-color:#A1A2A1"
   id="stop18311" />

	</linearGradient>
    <linearGradient
       id="XMLID_20_"
       gradientUnits="userSpaceOnUse"
       x1="30.4995"
       y1="20"
       x2="30.4995"
       y2="80">
		<stop
   offset="0"
   style="stop-color:#B0B0B0"
   id="stop18298" />

		<stop
   offset="0.4113"
   style="stop-color:#A8A8A8"
   id="stop18300" />

		<stop
   offset="1"
   style="stop-color:#A1A2A1"
   id="stop18302" />

	</linearGradient>
    <linearGradient
       id="XMLID_19_"
       gradientUnits="userSpaceOnUse"
       x1="24.4995"
       y1="20"
       x2="24.4995"
       y2="80">
		<stop
   offset="0"
   style="stop-color:#B0B0B0"
   id="stop18289" />

		<stop
   offset="0.4113"
   style="stop-color:#A8A8A8"
   id="stop18291" />

		<stop
   offset="1"
   style="stop-color:#A1A2A1"
   id="stop18293" />

	</linearGradient>
    <linearGradient
       id="XMLID_18_"
       gradientUnits="userSpaceOnUse"
       x1="18.4995"
       y1="20"
       x2="18.4995"
       y2="80">
		<stop
   offset="0"
   style="stop-color:#B0B0B0"
   id="stop18280" />

		<stop
   offset="0.4113"
   style="stop-color:#A8A8A8"
   id="stop18282" />

		<stop
   offset="1"
   style="stop-color:#A1A2A1"
   id="stop18284" />

	</linearGradient>
    <linearGradient
       id="XMLID_17_"
       gradientUnits="userSpaceOnUse"
       x1="62.999"
       y1="35"
       x2="62.999"
       y2="71.0003">
		<stop
   offset="0"
   style="stop-color:#B0B0B0"
   id="stop18257" />

		<stop
   offset="0.4113"
   style="stop-color:#A8A8A8"
   id="stop18259" />

		<stop
   offset="1"
   style="stop-color:#A1A2A1"
   id="stop18261" />

	</linearGradient>
    <linearGradient
       id="XMLID_16_"
       gradientUnits="userSpaceOnUse"
       x1="62.9995"
       y1="10"
       x2="62.9995"
       y2="84">
		<stop
   offset="0"
   style="stop-color:#FAFAFA"
   id="stop18246" />

		<stop
   offset="0.1867"
   style="stop-color:#F1F1F1"
   id="stop18248" />

		<stop
   offset="0.6656"
   style="stop-color:#DFDEDF"
   id="stop18250" />

		<stop
   offset="1"
   style="stop-color:#D8D7D8"
   id="stop18252" />

	</linearGradient>
    <linearGradient
       id="XMLID_15_"
       gradientUnits="userSpaceOnUse"
       x1="62.9995"
       y1="8"
       x2="62.9995"
       y2="88.7378">
		<stop
   offset="0"
   style="stop-color:#FFFFFF"
   id="stop18237" />

		<stop
   offset="0.514"
   style="stop-color:#F2F2F2"
   id="stop18239" />

		<stop
   offset="1"
   style="stop-color:#EBEBEB"
   id="stop18241" />

	</linearGradient>
    <linearGradient
       inkscape:collect="always"
       xlink:href="#linearGradient2797"
       id="linearGradient15136"
       gradientUnits="userSpaceOnUse"
       gradientTransform="matrix(0.2749643,0,0,0.2450787,32.823533,4.7563538)"
       x1="-78.663071"
       y1="92.280945"
       x2="-78.663071"
       y2="73.251953" />
    <linearGradient
       inkscape:collect="always"
       id="linearGradient2797">
      <stop
         style="stop-color:#4c2e2e;stop-opacity:1;"
         offset="0"
         id="stop2799" />
      <stop
         style="stop-color:#4c2e2e;stop-opacity:0;"
         offset="1"
         id="stop2801" />
    </linearGradient>
    <linearGradient
       inkscape:collect="always"
       xlink:href="#linearGradient2797"
       id="linearGradient15133"
       gradientUnits="userSpaceOnUse"
       gradientTransform="matrix(0.2749643,0,0,0.2450787,41.208613,4.7563538)"
       x1="-78.663071"
       y1="92.280945"
       x2="-78.663071"
       y2="73.251953" />
    <linearGradient
       inkscape:collect="always"
       xlink:href="#linearGradient3537"
       id="linearGradient15130"
       gradientUnits="userSpaceOnUse"
       gradientTransform="matrix(0.2749643,0,0,0.2356263,32.689373,5.4444795)"
       x1="-64.862534"
       y1="97.639641"
       x2="-64.862534"
       y2="76.764786" />
    <linearGradient
       inkscape:collect="always"
       xlink:href="#linearGradient3537"
       id="linearGradient15127"
       gradientUnits="userSpaceOnUse"
       gradientTransform="matrix(7.9723445e-2,0,0,0.3425698,14.876946,-5.3847683)"
       x1="-87.769356"
       y1="86.789932"
       x2="-57.797272"
       y2="86.789932" />
    <linearGradient
       inkscape:collect="always"
       id="linearGradient3537">
      <stop
         style="stop-color:#b87474;stop-opacity:1.0000000"
         offset="0"
         id="stop3539" />
      <stop
         style="stop-color:#9c4e4e;stop-opacity:1.0000000"
         offset="1"
         id="stop3541" />
    </linearGradient>
    <linearGradient
       inkscape:collect="always"
       xlink:href="#linearGradient3537"
       id="linearGradient15124"
       gradientUnits="userSpaceOnUse"
       gradientTransform="matrix(7.9723445e-2,0,0,0.3425698,25.928881,-5.3847683)"
       x1="-37.471592"
       y1="88.522766"
       x2="-71.302620"
       y2="88.522766" />
    <linearGradient
       inkscape:collect="always"
       xlink:href="#linearGradient2104"
       id="linearGradient15121"
       gradientUnits="userSpaceOnUse"
       x1="-86.475327"
       y1="61.128620"
       x2="-68.713142"
       y2="82.406235"
       gradientTransform="matrix(0.2749643,0,0,0.2450787,32.689369,4.7563538)" />
    <linearGradient
       inkscape:collect="always"
       xlink:href="#linearGradient2094"
       id="linearGradient2164"
       gradientUnits="userSpaceOnUse"
       x1="-76.980988"
       y1="27.677162"
       x2="-65.829239"
       y2="45.366146" />
    <linearGradient
       inkscape:collect="always"
       xlink:href="#linearGradient5018"
       id="linearGradient2162"
       gradientUnits="userSpaceOnUse"
       x1="-69.548508"
       y1="23.658701"
       x2="-65.980217"
       y2="36.878391" />
    <radialGradient
       inkscape:collect="always"
       xlink:href="#linearGradient4279"
       id="radialGradient2160"
       gradientUnits="userSpaceOnUse"
       gradientTransform="matrix(1.193359,0,0,1.193359,13.5758,-6.671156)"
       cx="-70.210243"
       cy="34.501350"
       fx="-70.210243"
       fy="34.501350"
       r="19.630728" />
    <linearGradient
       inkscape:collect="always"
       id="linearGradient2094">
      <stop
         style="stop-color:#ffffff;stop-opacity:1;"
         offset="0"
         id="stop2096" />
      <stop
         style="stop-color:#ffffff;stop-opacity:0;"
         offset="1"
         id="stop2098" />
    </linearGradient>
    <linearGradient
       inkscape:collect="always"
       xlink:href="#linearGradient2094"
       id="linearGradient2100"
       x1="-76.980988"
       y1="27.677162"
       x2="-65.829239"
       y2="45.366146"
       gradientUnits="userSpaceOnUse" />
    <linearGradient
       inkscape:collect="always"
       id="linearGradient5018">
      <stop
         style="stop-color:#696969;stop-opacity:1.0000000"
         offset="0"
         id="stop5020" />
      <stop
         style="stop-color:#424242;stop-opacity:1.0000000"
         offset="1"
         id="stop5022" />
    </linearGradient>
    <linearGradient
       inkscape:collect="always"
       xlink:href="#linearGradient5018"
       id="linearGradient1373"
       gradientUnits="userSpaceOnUse"
       x1="-69.548508"
       y1="23.658701"
       x2="-65.980217"
       y2="36.878391" />
    <linearGradient
       inkscape:collect="always"
       id="linearGradient4279">
      <stop
         style="stop-color:#cec9ae;stop-opacity:1.0000000"
         offset="0"
         id="stop4281" />
      <stop
         style="stop-color:#aea77b;stop-opacity:1.0000000"
         offset="1"
         id="stop4283" />
    </linearGradient>
    <radialGradient
       inkscape:collect="always"
       xlink:href="#linearGradient4279"
       id="radialGradient1361"
       gradientUnits="userSpaceOnUse"
       gradientTransform="matrix(1.193359,0,0,1.193359,13.5758,-6.671156)"
       cx="-70.210243"
       cy="34.501350"
       fx="-70.210243"
       fy="34.501350"
       r="19.630728" />
    <linearGradient
       inkscape:collect="always"
       id="linearGradient2104">
      <stop
         style="stop-color:#ffffff;stop-opacity:1;"
         offset="0"
         id="stop2106" />
      <stop
         style="stop-color:#ffffff;stop-opacity:0;"
         offset="1"
         id="stop2108" />
    </linearGradient>
    <linearGradient
       inkscape:collect="always"
       xlink:href="#linearGradient2104"
       id="linearGradient2110"
       x1="-86.475327"
       y1="61.128620"
       x2="-68.713142"
       y2="82.406235"
       gradientUnits="userSpaceOnUse" />
    <linearGradient
       id="linearGradient2109"
       inkscape:collect="always">
      <stop
         id="stop2111"
         offset="0"
         style="stop-color:#7490b8;stop-opacity:1.0000000" />
      <stop
         id="stop2113"
         offset="1"
         style="stop-color:#4e6e9c;stop-opacity:1.0000000" />
    </linearGradient>
    <linearGradient
       inkscape:collect="always"
       xlink:href="#linearGradient2109"
       id="linearGradient1371"
       gradientUnits="userSpaceOnUse"
       gradientTransform="matrix(0.289941,0,0,1.397795,-24.5868,-41.37904)"
       x1="-37.471592"
       y1="88.522766"
       x2="-71.302620"
       y2="88.522766" />
    <linearGradient
       id="linearGradient2115"
       inkscape:collect="always">
      <stop
         id="stop2117"
         offset="0"
         style="stop-color:#748ab8;stop-opacity:1.0000000" />
      <stop
         id="stop2119"
         offset="1"
         style="stop-color:#4e709c;stop-opacity:1.0000000" />
    </linearGradient>
    <linearGradient
       inkscape:collect="always"
       xlink:href="#linearGradient2115"
       id="linearGradient1369"
       gradientUnits="userSpaceOnUse"
       gradientTransform="matrix(0.289941,0,0,1.397795,-64.78087,-41.37904)"
       x1="-87.769356"
       y1="86.789932"
       x2="-57.797272"
       y2="86.789932" />
    <linearGradient
       id="linearGradient2103"
       inkscape:collect="always">
      <stop
         id="stop2105"
         offset="0"
         style="stop-color:#749ab8;stop-opacity:1.0000000" />
      <stop
         id="stop2107"
         offset="1"
         style="stop-color:#4e6c9c;stop-opacity:1.0000000" />
    </linearGradient>
    <linearGradient
       inkscape:collect="always"
       xlink:href="#linearGradient2103"
       id="linearGradient1367"
       gradientUnits="userSpaceOnUse"
       gradientTransform="matrix(1,0,0,0.961431,0,2.807774)"
       x1="-64.862534"
       y1="97.639641"
       x2="-64.862534"
       y2="76.764786" />
    <linearGradient
       id="linearGradient2127"
       inkscape:collect="always">
      <stop
         id="stop2129"
         offset="0"
         style="stop-color:#2e3e4c;stop-opacity:1.0000000" />
      <stop
         id="stop2131"
         offset="1"
         style="stop-color:#2e3d4c;stop-opacity:0.0000000" />
    </linearGradient>
    <linearGradient
       inkscape:collect="always"
       xlink:href="#linearGradient2127"
       id="linearGradient1365"
       gradientUnits="userSpaceOnUse"
       gradientTransform="translate(30.98309,0)"
       x1="-78.663071"
       y1="92.280945"
       x2="-78.663071"
       y2="73.251953" />
    <linearGradient
       id="linearGradient2121"
       inkscape:collect="always">
      <stop
         id="stop2123"
         offset="0"
         style="stop-color:#2e3f4c;stop-opacity:1.0000000" />
      <stop
         id="stop2125"
         offset="1"
         style="stop-color:#2e3a4c;stop-opacity:0.0000000" />
    </linearGradient>
    <linearGradient
       inkscape:collect="always"
       xlink:href="#linearGradient2121"
       id="linearGradient1363"
       gradientUnits="userSpaceOnUse"
       gradientTransform="translate(0.487923,0)"
       x1="-78.663071"
       y1="92.280945"
       x2="-78.663071"
       y2="73.251953" />
    <radialGradient
       gradientUnits="userSpaceOnUse"
       fy="20.438499"
       fx="3.3306"
       r="14.7268"
       cy="20.438499"
       cx="3.3306"
       id="aigrd3">
						<stop
   id="stop10661"
   style="stop-color:#0C0B0B"
   offset="0" />

						<stop
   id="stop10663"
   style="stop-color:#554C4D"
   offset="1" />

					</radialGradient>
    <linearGradient
       y2="33.057201"
       x2="45.388"
       y1="46.936501"
       x1="22.183599"
       gradientUnits="userSpaceOnUse"
       id="aigrd2">
						<stop
   id="stop10654"
   style="stop-color:#0C0B0B"
   offset="0" />

						<stop
   id="stop10656"
   style="stop-color:#251F20"
   offset="1" />

					</linearGradient>
    <radialGradient
       gradientUnits="userSpaceOnUse"
       fy="17.6455"
       fx="18.209999"
       r="25.677401"
       cy="17.6455"
       cx="18.209999"
       id="aigrd1">
						<stop
   id="stop10635"
   style="stop-color:#F9FAE9"
   offset="0" />

						<stop
   id="stop10637"
   style="stop-color:#F5C417"
   offset="0.5056" />

						<stop
   id="stop10639"
   style="stop-color:#EEB817"
   offset="0.6035" />

						<stop
   id="stop10641"
   style="stop-color:#DB9714"
   offset="0.7662" />

						<stop
   id="stop10643"
   style="stop-color:#BD6810"
   offset="0.9726" />

						<stop
   id="stop10645"
   style="stop-color:#B9620F"
   offset="1" />

					</radialGradient>
    <linearGradient
       y2="9.932"
       x2="15.9825"
       y1="22.2437"
       x1="23.2246"
       gradientUnits="userSpaceOnUse"
       id="aigrd17"
       gradientTransform="matrix(1.0689033,0,0,1.0362013,-1.9456,-1.0869567)">
			<stop
   id="stop10917"
   style="stop-color:#FFFFFF"
   offset="0" />

			<stop
   id="stop10919"
   style="stop-color:#FFFFFF"
   offset="1" />

		</linearGradient>
  </defs>
  <sodipodi:namedview
     id="base"
     pagecolor="#ffffff"
     bordercolor="#666666"
     borderopacity="1.0"
     inkscape:pageopacity="0.0"
     inkscape:pageshadow="2"
     inkscape:zoom="8.4791667"
     inkscape:cx="24"
     inkscape:cy="24"
     inkscape:document-units="px"
     inkscape:current-layer="layer1"
     width="48px"
     height="48px"
     inkscape:window-width="877"
     inkscape:window-height="624"
     inkscape:window-x="0"
     inkscape:window-y="48" />
  <metadata
     id="metadata11093">
    <rdf:RDF>
      <cc:Work
         rdf:about="">
        <dc:format>image/svg+xml</dc:format>
        <dc:type
           rdf:resource="http://purl.org/dc/dcmitype/StillImage" />
      </cc:Work>
    </rdf:RDF>
  </metadata>
  <g
     inkscape:label="Capa 1"
     inkscape:groupmode="layer"
     id="layer1">
    <g
       transform="matrix(1.0689033,0,0,1.0362013,-1.8195377,-0.9647514)"
       style="fill:#ffffff;fill-rule:nonzero;stroke:#000000;stroke-miterlimit:4"
       id="g10626">
			<g
   id="g10628">
				<g
   id="g10630">
					<path
   id="path10632"
   d="M 2.2,24.6 C 2.2,12.5 12,2.7 24.1,2.7 C 36.2,2.7 46,12.5 46,24.6 C 46,36.7 36.2,46.5 24.1,46.5 C 12,46.5 2.2,36.7 2.2,24.6 z "
   style="fill:#000000;stroke:none" />

					<radialGradient
   gradientUnits="userSpaceOnUse"
   fy="17.6455"
   fx="18.209999"
   r="25.677401"
   cy="17.6455"
   cx="18.209999"
   id="radialGradient11116">
						<stop
   id="stop11118"
   style="stop-color:#F9FAE9"
   offset="0" />

						<stop
   id="stop11120"
   style="stop-color:#F5C417"
   offset="0.5056" />

						<stop
   id="stop11122"
   style="stop-color:#EEB817"
   offset="0.6035" />

						<stop
   id="stop11124"
   style="stop-color:#DB9714"
   offset="0.7662" />

						<stop
   id="stop11126"
   style="stop-color:#BD6810"
   offset="0.9726" />

						<stop
   id="stop11128"
   style="stop-color:#B9620F"
   offset="1" />

					</radialGradient>

					<path
   id="path10647"
   d="M 3.6,24.7 C 3.6,36 12.8,45.2 24.1,45.2 C 35.4,45.2 44.6,36 44.6,24.7 C 44.6,13.4 35.4,4.2 24.1,4.2 C 12.8,4.2 3.6,13.4 3.6,24.7 z "
   style="fill:url(#aigrd1);fill-rule:evenodd;stroke:none" />

					<path
   id="path10649"
   d="M 23.4,25.1 L 23.4,25.1 L 23.4,25.1 L 23.4,25.1 L 23.4,25.1 z "
   style="fill:#0c0b0b;stroke:none" />

					<path
   id="path10651"
   d="M 5.5,24.6 C 5.5,34.9 13.8,43.2 24.1,43.2 C 34.4,43.2 42.7,34.9 42.7,24.6 C 42.8,14.3 34.4,6 24.1,6 C 13.8,6 5.5,14.3 5.5,24.6 M 2,24.6 C 2,12.4 11.9,2.5 24.1,2.5 C 36.3,2.5 46.2,12.4 46.2,24.6 C 46.2,36.8 36.3,46.7 24.1,46.7 C 11.9,46.7 2,36.8 2,24.6 z "
   style="fill:#000000;fill-rule:evenodd;stroke:none" />

					<linearGradient
   y2="33.057201"
   x2="45.388"
   y1="46.936501"
   x1="22.183599"
   gradientUnits="userSpaceOnUse"
   id="linearGradient11133">
						<stop
   id="stop11135"
   style="stop-color:#0C0B0B"
   offset="0" />

						<stop
   id="stop11137"
   style="stop-color:#251F20"
   offset="1" />

					</linearGradient>

					<path
   id="path10658"
   d="M 44.1,30.7 C 41.3,40.2 32.1,47 20.8,45.3 L 21.2,44.7 C 32.2,45.4 40.2,39.3 43.4,30.8 L 44.1,30.7 L 44.1,30.7 z "
   style="fill:url(#aigrd2);fill-rule:evenodd;stroke:none" />

					<radialGradient
   gradientUnits="userSpaceOnUse"
   fy="20.438499"
   fx="3.3306"
   r="14.7268"
   cy="20.438499"
   cx="3.3306"
   id="radialGradient11140">
						<stop
   id="stop11142"
   style="stop-color:#0C0B0B"
   offset="0" />

						<stop
   id="stop11144"
   style="stop-color:#554C4D"
   offset="1" />

					</radialGradient>

					<path
   id="path10665"
   d="M 10.9,7.8 C 7.8,9.8 4.1,15 3.3,20.4 C 4.2,20.2 3.4,18.4 4.5,18.4 C 5.1,15.8 5.1,14 10.5,8.2 C 10.5,8.1 11.2,7.8 10.8,7.7 L 10.9,7.8 z "
   style="fill:url(#aigrd3);fill-rule:evenodd;stroke:none" />

				</g>

			</g>

		</g>
    <g
       id="g18617"
       transform="matrix(0.2234206,0,0,0.1888046,10.303211,11.350358)">
      <path
         id="path18232"
         d="M 7,7 C 6.447,7 6,7.448 6,8 L 6,86 C 6,86.553 6.447,87 7,87 L 119,87 C 119.553,87 120,86.553 120,86 L 120,8 C 120,7.448 119.553,7 119,7 L 7,7 z "
         style="opacity:0.7;fill:#727273" />
      <path
         id="path18234"
         d="M 119,86 C 119,87.1 118.1,88 117,88 L 9,88 C 7.9,88 7,87.1 7,86 L 7,12 C 7,10.9 7.9,10 9,10 L 117,10 C 118.1,10 119,10.9 119,12 L 119,86 z "
         style="opacity:0.2;fill:#727273" />
      <rect
         id="rect18243"
         height="78"
         width="112"
         y="8"
         x="7"
         style="fill:url(#XMLID_15_)" />
      <rect
         id="rect18254"
         height="76"
         width="110"
         y="9"
         x="8"
         style="fill:url(#XMLID_16_)" />
      <path
         id="path18263"
         d="M 12,13 L 12,81 L 114,81 L 114,13 L 12,13 z M 113,80 L 13,80 L 13,14 L 113,14 L 113,80 z "
         style="fill:url(#XMLID_17_)" />
      <rect
         id="rect18265"
         height="7"
         width="102"
         y="13"
         x="12"
         style="fill:#b47549" />
      <rect
         id="rect18267"
         height="5"
         width="5"
         y="14"
         x="13"
         style="fill:#f39e61" />
      <rect
         id="rect18269"
         height="5"
         width="5"
         y="14"
         x="19"
         style="fill:#f39e61" />
      <rect
         id="rect18271"
         height="5"
         width="5"
         y="14"
         x="25"
         style="fill:#f39e61" />
      <rect
         id="rect18273"
         height="5"
         width="27"
         y="14"
         x="31"
         style="fill:#f39e61" />
      <rect
         id="rect18275"
         height="5"
         width="26"
         y="14"
         x="59"
         style="fill:#f39e61" />
      <rect
         id="rect18277"
         height="5"
         width="27"
         y="14"
         x="86"
         style="fill:#f39e61" />
      <rect
         id="rect18286"
         height="60"
         width="1"
         y="20"
         x="18"
         style="fill:url(#XMLID_18_)" />
      <rect
         id="rect18295"
         height="60"
         width="1"
         y="20"
         x="24"
         style="fill:url(#XMLID_19_)" />
      <rect
         id="rect18304"
         height="60"
         width="1"
         y="20"
         x="30"
         style="fill:url(#XMLID_20_)" />
      <rect
         id="rect18313"
         height="60"
         width="1"
         y="20"
         x="58"
         style="fill:url(#XMLID_21_)" />
      <rect
         id="rect18322"
         height="60"
         width="1"
         y="20"
         x="85"
         style="fill:url(#XMLID_22_)" />
      <g
         id="g18324">
		<g
   id="g18326">
			<rect
   id="rect18328"
   height="5"
   width="102"
   y="72"
   x="12"
   style="fill:#b7a173" />

		</g>

		<g
   id="g18330">
			<rect
   id="rect18332"
   height="3"
   width="5"
   y="73"
   x="13"
   style="fill:#f9da9d" />

		</g>

		<g
   id="g18334">
			<rect
   id="rect18336"
   height="3"
   width="5"
   y="73"
   x="19"
   style="fill:#f9da9d" />

		</g>

		<g
   id="g18338">
			<rect
   id="rect18340"
   height="3"
   width="5"
   y="73"
   x="25"
   style="fill:#f9da9d" />

		</g>

		<g
   id="g18342">
			<rect
   id="rect18344"
   height="3"
   width="27"
   y="73"
   x="31"
   style="fill:#f9da9d" />

		</g>

		<g
   id="g18346">
			<rect
   id="rect18348"
   height="3"
   width="26"
   y="73"
   x="59"
   style="fill:#f9da9d" />

		</g>

		<g
   id="g18350">
			<rect
   id="rect18352"
   height="3"
   width="27"
   y="73"
   x="86"
   style="fill:#f9da9d" />

		</g>

	</g>
      <g
         id="g18354">
		<g
   id="g18356">
			<rect
   id="rect18358"
   height="5"
   width="102"
   y="63"
   x="12"
   style="fill:#b7a173" />

		</g>

		<g
   id="g18360">
			<rect
   id="rect18362"
   height="3"
   width="5"
   y="64"
   x="13"
   style="fill:#f9da9d" />

		</g>

		<g
   id="g18364">
			<rect
   id="rect18366"
   height="3"
   width="5"
   y="64"
   x="19"
   style="fill:#f9da9d" />

		</g>

		<g
   id="g18368">
			<rect
   id="rect18370"
   height="3"
   width="5"
   y="64"
   x="25"
   style="fill:#f9da9d" />

		</g>

		<g
   id="g18372">
			<rect
   id="rect18374"
   height="3"
   width="27"
   y="64"
   x="31"
   style="fill:#f9da9d" />

		</g>

		<g
   id="g18376">
			<rect
   id="rect18378"
   height="3"
   width="26"
   y="64"
   x="59"
   style="fill:#f9da9d" />

		</g>

		<g
   id="g18380">
			<rect
   id="rect18382"
   height="3"
   width="27"
   y="64"
   x="86"
   style="fill:#f9da9d" />

		</g>

	</g>
      <g
         id="g18384">
		<g
   id="g18386">
			<rect
   id="rect18388"
   height="5"
   width="102"
   y="54"
   x="12"
   style="fill:#b7a173" />

		</g>

		<g
   id="g18390">
			<rect
   id="rect18392"
   height="3"
   width="5"
   y="55"
   x="13"
   style="fill:#f9da9d" />

		</g>

		<g
   id="g18394">
			<rect
   id="rect18396"
   height="3"
   width="5"
   y="55"
   x="19"
   style="fill:#f9da9d" />

		</g>

		<g
   id="g18398">
			<rect
   id="rect18400"
   height="3"
   width="5"
   y="55"
   x="25"
   style="fill:#f9da9d" />

		</g>

		<g
   id="g18402">
			<rect
   id="rect18404"
   height="3"
   width="27"
   y="55"
   x="31"
   style="fill:#f9da9d" />

		</g>

		<g
   id="g18406">
			<rect
   id="rect18408"
   height="3"
   width="26"
   y="55"
   x="59"
   style="fill:#f9da9d" />

		</g>

		<g
   id="g18410">
			<rect
   id="rect18412"
   height="3"
   width="27"
   y="55"
   x="86"
   style="fill:#f9da9d" />

		</g>

	</g>
      <g
         id="g18414">
		<g
   id="g18416">
			<rect
   id="rect18418"
   height="5"
   width="102"
   y="45"
   x="12"
   style="fill:#b7a173" />

		</g>

		<g
   id="g18420">
			<rect
   id="rect18422"
   height="3"
   width="5"
   y="46"
   x="13"
   style="fill:#f9da9d" />

		</g>

		<g
   id="g18424">
			<rect
   id="rect18426"
   height="3"
   width="5"
   y="46"
   x="19"
   style="fill:#f9da9d" />

		</g>

		<g
   id="g18428">
			<rect
   id="rect18430"
   height="3"
   width="5"
   y="46"
   x="25"
   style="fill:#f9da9d" />

		</g>

		<g
   id="g18432">
			<rect
   id="rect18434"
   height="3"
   width="27"
   y="46"
   x="31"
   style="fill:#f9da9d" />

		</g>

		<g
   id="g18436">
			<rect
   id="rect18438"
   height="3"
   width="26"
   y="46"
   x="59"
   style="fill:#f9da9d" />

		</g>

		<g
   id="g18440">
			<rect
   id="rect18442"
   height="3"
   width="27"
   y="46"
   x="86"
   style="fill:#f9da9d" />

		</g>

	</g>
      <g
         id="g18444">
		<g
   id="g18446">
			<rect
   id="rect18448"
   height="5"
   width="102"
   y="36"
   x="12"
   style="fill:#b7a173" />

		</g>

		<g
   id="g18450">
			<rect
   id="rect18452"
   height="3"
   width="5"
   y="37"
   x="13"
   style="fill:#f9da9d" />

		</g>

		<g
   id="g18454">
			<rect
   id="rect18456"
   height="3"
   width="5"
   y="37"
   x="19"
   style="fill:#f9da9d" />

		</g>

		<g
   id="g18458">
			<rect
   id="rect18460"
   height="3"
   width="5"
   y="37"
   x="25"
   style="fill:#f9da9d" />

		</g>

		<g
   id="g18462">
			<rect
   id="rect18464"
   height="3"
   width="27"
   y="37"
   x="31"
   style="fill:#f9da9d" />

		</g>

		<g
   id="g18466">
			<rect
   id="rect18468"
   height="3"
   width="26"
   y="37"
   x="59"
   style="fill:#f9da9d" />

		</g>

		<g
   id="g18470">
			<rect
   id="rect18472"
   height="3"
   width="27"
   y="37"
   x="86"
   style="fill:#f9da9d" />

		</g>

	</g>
      <g
         id="g18474">
		<g
   id="g18476">
			<rect
   id="rect18478"
   height="5"
   width="102"
   y="27"
   x="12"
   style="fill:#b7a173" />

		</g>

		<g
   id="g18480">
			<rect
   id="rect18482"
   height="3"
   width="5"
   y="28"
   x="13"
   style="fill:#f9da9d" />

		</g>

		<g
   id="g18484">
			<rect
   id="rect18486"
   height="3"
   width="5"
   y="28"
   x="19"
   style="fill:#f9da9d" />

		</g>

		<g
   id="g18488">
			<rect
   id="rect18490"
   height="3"
   width="5"
   y="28"
   x="25"
   style="fill:#f9da9d" />

		</g>

		<g
   id="g18492">
			<rect
   id="rect18494"
   height="3"
   width="27"
   y="28"
   x="31"
   style="fill:#f9da9d" />

		</g>

		<g
   id="g18496">
			<rect
   id="rect18498"
   height="3"
   width="26"
   y="28"
   x="59"
   style="fill:#f9da9d" />

		</g>

		<g
   id="g18500">
			<rect
   id="rect18502"
   height="3"
   width="27"
   y="28"
   x="86"
   style="fill:#f9da9d" />

		</g>

	</g>
      <path
         id="path18504"
         d="M 36,40 C 35.447,40 35,40.448 35,41 L 35,43 C 35,43.552 35.447,44 36,44 C 36,44 43.38,44 45,44 C 45,44.444 45,44.556 45,45 C 44.111,45 43,45 43,45 C 42.447,45 42,45.448 42,46 L 42,48 C 42,48.552 42.447,49 43,49 C 43,49 44.111,49 45,49 C 45,49.444 45,49.556 45,50 C 44.111,50 43,50 43,50 C 42.447,50 42,50.448 42,51 L 42,53 C 42,53.552 42.447,54 43,54 C 43,54 44.111,54 45,54 C 45,54.444 45,54.556 45,55 C 43.38,55 36,55 36,55 C 35.447,55 35,55.448 35,56 L 35,58 C 35,58.552 35.447,59 36,59 C 36,59 43.38,59 45,59 C 45,59.444 45,59.556 45,60 C 44.111,60 43,60 43,60 C 42.447,60 42,60.448 42,61 L 42,63 C 42,63.552 42.447,64 43,64 C 43,64 44.111,64 45,64 C 45,64.444 45,64.556 45,65 C 44.111,65 43,65 43,65 C 42.447,65 42,65.447 42,66 L 42,68 C 42,68.553 42.447,69 43,69 C 43,69 44.111,69 45,69 C 45,69.444 45,69.556 45,70 C 43.38,70 36,70 36,70 C 35.447,70 35,70.447 35,71 L 35,73 C 35,73.553 35.447,74 36,74 C 36,74 43.38,74 45,74 C 45,74.444 45,74.556 45,75 C 44.111,75 43,75 43,75 C 42.447,75 42,75.447 42,76 L 42,78 C 42,78.553 42.447,79 43,79 C 43,79 44.111,79 45,79 C 45,79.444 45,79.556 45,80 C 44.111,80 43,80 43,80 C 42.447,80 42,80.447 42,81 L 42,83 C 42,83.553 42.447,84 43,84 C 43,84 44.111,84 45,84 C 45,84.444 45,84.556 45,85 C 43.38,85 36,85 36,85 C 35.447,85 35,85.447 35,86 L 35,88 C 35,88.553 35.447,89 36,89 C 36,89 43.38,89 45,89 C 45,89.444 45,89.556 45,90 C 44.111,90 43,90 43,90 C 42.447,90 42,90.447 42,91 L 42,93 C 42,93.553 42.447,94 43,94 C 43,94 44.111,94 45,94 C 45,94.444 45,94.556 45,95 C 44.111,95 43,95 43,95 C 42.447,95 42,95.447 42,96 L 42,98 C 42,98.553 42.447,99 43,99 C 43,99 44.111,99 45,99 C 45,99.444 45,99.556 45,100 C 43.38,100 36,100 36,100 C 35.447,100 35,100.447 35,101 L 35,103 C 35,103.553 35.447,104 36,104 C 36,104 43.38,104 45,104 C 45,104.444 45,104.556 45,105 C 44.111,105 43,105 43,105 C 42.447,105 42,105.447 42,106 L 42,108 C 42,108.553 42.447,109 43,109 C 43,109 44.111,109 45,109 C 45,109.444 45,109.556 45,110 C 44.111,110 43,110 43,110 C 42.447,110 42,110.447 42,111 L 42,113 C 42,113.553 42.447,114 43,114 C 43,114 44.111,114 45,114 C 45,115.125 45,119.334 45,119.334 C 45,121.056 46.333,122 48.167,122 L 121.056,122 C 122.556,122 124,121.444 124,120.056 L 124,114 C 124,113.447 123.553,113 123,113 C 123,113 114.653,113 113,113 C 113,111.061 113,50 113,50 C 113,49.448 112.553,49 112,49 L 98,49 C 97.447,49 97,49.448 97,50 C 97,50 97,112.061 97,114 C 95.775,114 93.225,114 92,114 C 92,112.092 92,72 92,72 C 92,71.447 91.553,71 91,71 L 77,71 C 76.447,71 76,71.447 76,72 C 76,72 76,112.092 76,114 C 74.775,114 72.225,114 71,114 C 71,112.069 71,58 71,58 C 71,57.448 70.553,57 70,57 L 56,57 C 55.447,57 55,57.448 55,58 C 55,58 55,112.069 55,114 C 53.687,114 50.312,114 49,114 C 49,112.054 49,41 49,41 C 49,40.448 48.553,40 48,40 L 36,40 z "
         style="opacity:0.1;fill:#141414" />
      <polygon
         id="polygon18515"
         points="112,114 112,49 98,49 98,114 91,114 91,71 77,71 77,114 70,114 70,57 56,57 56,114 48,114 48,40 36,40 36,42 46,42 46,45 43,45 43,47 46,47 46,50 43,50 43,52 46,52 46,55 36,55 36,57 46,57 46,60 43,60 43,62 46,62 46,65 43,65 43,67 46,67 46,70 36,70 36,72 46,72 46,75 43,75 43,77 46,77 46,80 43,80 43,82 46,82 46,85 36,85 36,87 46,87 46,90 43,90 43,92 46,92 46,95 43,95 43,97 46,97 46,100 36,100 36,102 46,102 46,105 43,105 43,107 46,107 46,110 43,110 43,112 46,112 46,118.75 123,118.75 123,114 112,114 "
         style="opacity:0.1;fill:url(#XMLID_23_)" />
      <rect
         id="rect18526"
         height="57"
         width="14"
         y="56"
         x="56"
         style="fill:url(#XMLID_24_)" />
      <rect
         id="rect18535"
         height="43"
         width="14"
         y="70"
         x="77"
         style="fill:url(#XMLID_25_)" />
      <rect
         id="rect18546"
         height="65"
         width="14"
         y="48"
         x="98"
         style="fill:url(#XMLID_26_)" />
      <rect
         id="rect18548"
         height="2"
         width="77"
         y="113"
         x="46"
         style="fill:#070707" />
      <polygon
         id="polygon18559"
         points="36,39 36,41 46,41 46,44 43,44 43,46 46,46 46,49 43,49 43,51 46,51 46,54 36,54 36,56 46,56 46,59 43,59 43,61 46,61 46,64 43,64 43,66 46,66 46,69 36,69 36,71 46,71 46,74 43,74 43,76 46,76 46,79 43,79 43,81 46,81 46,84 36,84 36,86 46,86 46,89 43,89 43,91 46,91 46,94 43,94 43,96 46,96 46,99 36,99 36,101 46,101 46,104 43,104 43,106 46,106 46,109 43,109 43,111 46,111 46,115 48,115 48,39 36,39 "
         style="fill:url(#XMLID_27_)" />
      <rect
         id="rect18561"
         height="2"
         width="2"
         y="117"
         x="121"
         style="fill:#f36500" />
      <rect
         id="rect18563"
         height="2"
         width="2"
         y="117"
         x="116"
         style="fill:#f36500" />
      <rect
         id="rect18565"
         height="2"
         width="2"
         y="117"
         x="111"
         style="fill:#f36500" />
      <rect
         id="rect18567"
         height="2"
         width="2"
         y="117"
         x="106"
         style="fill:#f36500" />
      <rect
         id="rect18569"
         height="2"
         width="2"
         y="117"
         x="101"
         style="fill:#f36500" />
      <rect
         id="rect18571"
         height="2"
         width="2"
         y="117"
         x="96"
         style="fill:#f36500" />
      <rect
         id="rect18573"
         height="2"
         width="2"
         y="117"
         x="91"
         style="fill:#f36500" />
      <rect
         id="rect18575"
         height="2"
         width="2"
         y="117"
         x="86"
         style="fill:#f36500" />
      <rect
         id="rect18577"
         height="2"
         width="2"
         y="117"
         x="81"
         style="fill:#f36500" />
      <rect
         id="rect18579"
         height="2"
         width="2"
         y="117"
         x="76"
         style="fill:#f36500" />
      <rect
         id="rect18581"
         height="2"
         width="2"
         y="117"
         x="71"
         style="fill:#f36500" />
      <rect
         id="rect18583"
         height="2"
         width="2"
         y="117"
         x="66"
         style="fill:#f36500" />
      <rect
         id="rect18585"
         height="2"
         width="2"
         y="117"
         x="61"
         style="fill:#f36500" />
      <rect
         id="rect18587"
         height="2"
         width="2"
         y="117"
         x="56"
         style="fill:#f36500" />
      <rect
         id="rect18589"
         height="2"
         width="2"
         y="117"
         x="51"
         style="fill:#f36500" />
      <rect
         id="rect18591"
         height="2"
         width="2"
         y="117"
         x="46"
         style="fill:#f36500" />
      <path
         id="path18600"
         d="M 69,76.441 L 69,57 L 57,57 L 57,79.789 C 60.815,78.521 64.825,77.401 69,76.441 z "
         style="fill:url(#XMLID_28_)" />
      <path
         id="path18602"
         d="M 90,73.158 L 90,71 L 78,71 L 78,74.668 C 81.892,74.025 85.899,73.52 90,73.158 z "
         style="fill:#e94848" />
      <path
         id="path18604"
         d="M 105,72.5 C 107.017,72.5 109.017,72.539 111,72.607 L 111,49 L 99,49 L 99,72.607 C 100.983,72.539 102.983,72.5 105,72.5 z "
         style="fill:#78a6d8" />
      <rect
         id="rect18606"
         height="2"
         width="14"
         y="115"
         x="56"
         style="opacity:0.1;fill:#141414" />
      <rect
         id="rect18608"
         height="2"
         width="14"
         y="115"
         x="77"
         style="opacity:0.1;fill:#141414" />
      <rect
         id="rect18610"
         height="2"
         width="14"
         y="115"
         x="98"
         style="opacity:0.1;fill:#141414" />
    </g>
    <text
       xml:space="preserve"
       style="font-size:9.73514271px;font-style:normal;font-weight:normal;fill:#000000;fill-opacity:1;stroke:none;stroke-width:1px;stroke-linecap:butt;stroke-linejoin:miter;stroke-opacity:1;font-family:Bitstream Vera Sans"
       x="10.201093"
       y="36.264339"
       id="text18953"
       transform="scale(1.1295928,0.8852747)"><tspan
         sodipodi:role="line"
         id="tspan18955"
         x="10.201093"
         y="36.264339">$</tspan></text>
    <path
       id="path10921"
       d="M 5.536722,28.030298 C 20.39448,34.040266 25.525216,11.761938 41.986326,19.118967 C 38.993397,10.104016 29.266378,4.8193893 19.646247,6.9954123 C 9.919227,9.2750551 3.719588,18.600867 5.536722,28.030298 z "
       style="opacity:0.46000001;fill:url(#aigrd17);fill-rule:evenodd;stroke:none;stroke-miterlimit:4" />
  </g>
</svg>
