<?xml version="1.0" encoding="UTF-8" standalone="no"?>
<!-- Created with Inkscape (http://www.inkscape.org/) -->
<svg
   xmlns:dc="http://purl.org/dc/elements/1.1/"
   xmlns:cc="http://web.resource.org/cc/"
   xmlns:rdf="http://www.w3.org/1999/02/22-rdf-syntax-ns#"
   xmlns:svg="http://www.w3.org/2000/svg"
   xmlns="http://www.w3.org/2000/svg"
   xmlns:xlink="&amp;#38;#38;#38;#38;ns_xlink;"
   xmlns:sodipodi="http://inkscape.sourceforge.net/DTD/sodipodi-0.dtd"
   xmlns:inkscape="http://www.inkscape.org/namespaces/inkscape"
   sodipodi:docname="gnome-mime-application-x-gnumeric.svg"
   sodipodi:docbase="/home/andy/Desktop/Etiquette/elegance/scalable/mimetypes"
   inkscape:version="0.41+cvs"
   sodipodi:version="0.32"
   version="1.0"
   x="0.0000000"
   y="0.0000000"
   width="128.00000"
   height="128.00000"
   id="svg3871">
  <metadata
     id="metadata1438">
    <rdf:RDF
       id="RDF1440">
      <cc:Work
         id="Work1442"
         rdf:about="">
        <dc:format
           id="format1444">image/svg+xml</dc:format>
        <dc:type
           rdf:resource="http://purl.org/dc/dcmitype/StillImage"
           id="type1446" />
      </cc:Work>
    </rdf:RDF>
  </metadata>
  <sodipodi:namedview
     inkscape:current-layer="svg3871"
     inkscape:window-y="284"
     inkscape:window-x="773"
     id="base"
     pagecolor="#ffffff"
     bordercolor="#666666"
     borderopacity="1.0"
     inkscape:pageopacity="0.0"
     inkscape:pageshadow="2"
     inkscape:window-width="711"
     inkscape:window-height="480"
     inkscape:cy="55.474121"
     inkscape:cx="0.073486328"
     inkscape:zoom="1.0000000" />
  <defs
     id="defs3">
    <linearGradient
       id="linearGradient204">
      <stop
         id="stop205"
         offset="0"
         style="stop-color:#565248;stop-opacity:1;" />
      <stop
         id="stop206"
         offset="1"
         style="stop-color:#565248;stop-opacity:0;" />
    </linearGradient>
    <linearGradient
       id="TransparentWhite">
      <stop
         id="stopwhitefull"
         offset="0"
         style="stop-color:#ffffff;stop-opacity:0;" />
      <stop
         id="stopwhitetransparent"
         offset="1"
         style="stop-color:#ffffff;stop-opacity:1;" />
    </linearGradient>
    <linearGradient
       id="WhiteTransparent">
      <stop
         id="stopWhiteFull"
         offset="0"
         style="stop-color:#ffffff;stop-opacity:1;" />
      <stop
         id="stopWhiteTransparent"
         offset="1"
         style="stop-color:#ffffff;stop-opacity:0;" />
    </linearGradient>
    <linearGradient
       id="Basic3DDarkGradient">
      <stop
         style="stop-color:#807d74;stop-opacity:1.0000000;"
         offset="0.0000000"
         id="stop3929" />
      <stop
         style="stop-color:#807d74;stop-opacity:0.0000000;"
         offset="1.0000000"
         id="stop3930" />
    </linearGradient>
    <linearGradient
       id="linearGradient486">
      <stop
         style="stop-color:#000000;stop-opacity:1.0000000;"
         offset="0.0000000"
         id="stop487" />
      <stop
         style="stop-color:#000000;stop-opacity:0.0000000;"
         offset="1.0000000"
         id="stop488" />
    </linearGradient>
    <linearGradient
       id="MaterialSoftShadow">
      <stop
         style="stop-color:#000000;stop-opacity:0.21500000;"
         offset="0.0000000"
         id="stop2619" />
      <stop
         style="stop-color:#000000;stop-opacity:0.097999997;"
         offset="0.50000000"
         id="stop2621" />
      <stop
         style="stop-color:#000000;stop-opacity:0.0000000;"
         offset="1.0000000"
         id="stop2620" />
    </linearGradient>
    <linearGradient
       y2="10.392305"
       x2="155.88457"
       y1="10.392305"
       x1="138.56406"
       gradientTransform="matrix(-0.150381,0.561232,1.683697,0.451145,110.3553,-53.61083)"
       gradientUnits="userSpaceOnUse"
       id="linearGradient1455"
       xlink:href="#MaterialSoftShadow"
       inkscape:collect="always" />
    <linearGradient
       y2="21.908581"
       x2="59.438431"
       y1="18.920692"
       x1="72.665489"
       gradientTransform="matrix(1.468908,0.000000,0.000000,0.689484,4.377400e-2,0.494256)"
       gradientUnits="userSpaceOnUse"
       id="linearGradient1459"
       xlink:href="#Basic3DDarkGradient"
       inkscape:collect="always" />
    <linearGradient
       y2="22.218750"
       x2="101.95312"
       y1="17.296875"
       x1="106.87500"
       gradientTransform="matrix(1.006374,0.000000,0.000000,1.006374,4.377400e-2,0.494256)"
       gradientUnits="userSpaceOnUse"
       id="linearGradient1463"
       xlink:href="#MaterialSoftShadow"
       inkscape:collect="always" />
    <linearGradient
       y2="51.599213"
       x2="74.861580"
       y1="11.005426"
       x1="118.16164"
       gradientTransform="matrix(0.968356,0.000000,0.000000,1.045884,4.377400e-2,0.494256)"
       gradientUnits="userSpaceOnUse"
       id="linearGradient1473"
       xlink:href="#MaterialSoftShadow"
       inkscape:collect="always" />
    <linearGradient
       y2="66.194740"
       x2="76.516380"
       y1="197.54245"
       x1="-59.549145"
       gradientTransform="matrix(0.966670,0.000000,0.000000,1.047710,4.377400e-2,0.494256)"
       gradientUnits="userSpaceOnUse"
       id="linearGradient1479"
       xlink:href="#MaterialSoftShadow"
       inkscape:collect="always" />
    <linearGradient
       y2="51.599213"
       x2="74.861580"
       y1="11.005426"
       x1="118.16164"
       gradientTransform="matrix(0.968356,0.000000,0.000000,1.045884,4.377400e-2,0.494256)"
       gradientUnits="userSpaceOnUse"
       id="linearGradient1484"
       xlink:href="#MaterialSoftShadow"
       inkscape:collect="always" />
    <linearGradient
       y2="-124.70101"
       x2="143.71259"
       y1="389.89197"
       x1="143.71259"
       gradientTransform="matrix(0.968356,0.000000,0.000000,1.045884,4.377400e-2,0.494256)"
       gradientUnits="userSpaceOnUse"
       id="linearGradient1486"
       xlink:href="#linearGradient486"
       inkscape:collect="always" />
    <linearGradient
       inkscape:collect="always"
       xlink:href="#linearGradient204"
       id="linearGradient1891"
       gradientUnits="userSpaceOnUse"
       gradientTransform="matrix(0.948683,0.000000,0.000000,1.054093,-165.8674,10.50000)"
       x1="57.884243"
       y1="-65.488770"
       x2="66.880379"
       y2="136.10635" />
    <linearGradient
       inkscape:collect="always"
       xlink:href="#TransparentWhite"
       id="linearGradient1893"
       gradientUnits="userSpaceOnUse"
       gradientTransform="matrix(1.404740,0.000000,0.000000,0.643993,-170.1093,9.095243)"
       x1="61.080898"
       y1="68.733429"
       x2="61.080898"
       y2="30.723587" />
    <linearGradient
       inkscape:collect="always"
       xlink:href="#WhiteTransparent"
       id="linearGradient1895"
       gradientUnits="userSpaceOnUse"
       gradientTransform="matrix(1.038641,0.000000,0.000000,0.610965,-180.9968,-14.06186)"
       x1="203.22814"
       y1="283.58530"
       x2="64.171749"
       y2="139.44981" />
    <linearGradient
       inkscape:collect="always"
       xlink:href="#TransparentWhite"
       id="linearGradient1897"
       gradientUnits="userSpaceOnUse"
       gradientTransform="matrix(-1.781979,0.000000,0.000000,0.871709,-48.64300,-48.00944)"
       x1="18.447243"
       y1="132.14793"
       x2="50.512375"
       y2="131.78046" />
    <linearGradient
       inkscape:collect="always"
       xlink:href="#TransparentWhite"
       id="linearGradient1899"
       gradientUnits="userSpaceOnUse"
       gradientTransform="matrix(1.498050,0.000000,0.000000,0.732818,-149.1326,-25.33784)"
       x1="37.356335"
       y1="126.20204"
       x2="55.953182"
       y2="125.81947" />
  </defs>
  <path
     id="path433"
     style="fill:url(#linearGradient1484);fill-opacity:1.0000000;fill-rule:evenodd;stroke:url(#linearGradient1486);stroke-width:2.5159349;stroke-linecap:butt;stroke-linejoin:miter;stroke-miterlimit:4.0000000;stroke-opacity:1.0000000"
     d="M 10.107514,3.5133780 L 10.107514,124.27826 L 120.80865,124.27826 L 120.80865,33.704598 L 90.617434,3.5133780 L 10.107514,3.5133780 z " />
  <path
     id="path6763"
     style="fill:#f6f6f6;fill-opacity:1.0000000;fill-rule:evenodd;stroke:none;stroke-width:2.5000000;stroke-linecap:butt;stroke-linejoin:miter;stroke-miterlimit:4.0000000;stroke-opacity:1.0000000"
     d="M 10.107514,3.5133780 L 10.107514,124.27826 L 120.80865,124.27826 L 120.80865,33.704598 L 90.617434,3.5133780 L 10.107514,3.5133780 z " />
  <g
     id="g1878"
     transform="translate(166.5000,-9.000000)">
    <path
       style="fill:url(#linearGradient1891);fill-opacity:1.0000000;fill-rule:nonzero;stroke:none;stroke-width:24.145752;stroke-linecap:butt;stroke-linejoin:round;stroke-miterlimit:4.0000000;stroke-dashoffset:0.0000000;stroke-opacity:1.0000000"
       d="M -145.86740,23.500000 L -75.867400,23.500000 L -55.867400,43.500000 L -55.867400,123.50000 L -145.86740,123.50000 L -145.86740,23.500000 z "
       id="path441"
       sodipodi:nodetypes="cccccc" />
    <path
       style="opacity:0.42011830;fill:url(#linearGradient1893);fill-opacity:1.0000000;fill-rule:nonzero;stroke:none;stroke-width:0.33413577;stroke-linecap:round;stroke-linejoin:round;stroke-miterlimit:4.0000000;stroke-dasharray:1.3365431 1.3365431 ;stroke-dashoffset:0.0000000;stroke-opacity:1.0000000"
       d="M -143.86239,42.785716 C -143.86239,30.880954 -126.05224,28.507213 -105.86740,28.500000 C -85.682563,28.492789 -58.611760,30.733057 -58.611760,42.666668 L -58.611760,71.238096 L -143.86239,71.357144 L -143.86239,42.785716 z "
       id="path2345"
       sodipodi:nodetypes="cscccc" />
    <path
       style="opacity:0.56999999;fill:#ffffff;fill-opacity:1.0000000;fill-rule:evenodd;stroke:none;stroke-width:2.5000000;stroke-linecap:butt;stroke-linejoin:miter;stroke-miterlimit:4.0000000;stroke-dashoffset:0.0000000;stroke-opacity:1.0000000"
       d="M -141.67757,95.018885 L -141.67757,101.10980 L -123.40484,101.10980 L -123.40484,95.018885 L -141.67757,95.018885 z M -120.35939,95.018885 L -120.35939,101.10980 L -102.08666,101.10980 L -102.08666,95.018885 L -120.35939,95.018885 z M -99.041206,95.018885 L -99.041206,101.10980 L -80.768476,101.10980 L -80.768476,95.018885 L -99.041206,95.018885 z M -77.723026,95.018885 L -77.723026,101.10980 L -59.450300,101.10980 L -59.450300,95.018885 L -77.723026,95.018885 z M -141.67757,104.15525 L -141.67757,110.24617 L -123.40484,110.24617 L -123.40484,104.15525 L -141.67757,104.15525 z M -120.35939,104.15525 L -120.35939,110.24617 L -102.08666,110.24617 L -102.08666,104.15525 L -120.35939,104.15525 z M -99.041206,104.15525 L -99.041206,110.24617 L -80.768476,110.24617 L -80.768476,104.15525 L -99.041206,104.15525 z M -77.723026,104.15525 L -77.723026,110.24617 L -59.450300,110.24617 L -59.450300,104.15525 L -77.723026,104.15525 z M -141.67757,113.29161 L -141.67757,119.38253 L -123.40484,119.38253 L -123.40484,113.29161 L -141.67757,113.29161 z M -120.35939,113.29161 L -120.35939,119.38253 L -102.08666,119.38253 L -102.08666,113.29161 L -120.35939,113.29161 z M -99.041206,113.29161 L -99.041206,119.38253 L -80.768476,119.38253 L -80.768476,113.29161 L -99.041206,113.29161 z M -77.723026,113.29161 L -77.723026,119.38253 L -59.450300,119.38253 L -59.450300,113.29161 L -77.723026,113.29161 z "
       id="rect172"
       sodipodi:nodetypes="cccccccccccccccccccccccccccccccccccccccccccccccccccccccccccc" />
    <path
       style="fill:url(#linearGradient1895);fill-opacity:1.0000000;fill-rule:evenodd;stroke:none;stroke-width:1.0000000pt;stroke-linecap:butt;stroke-linejoin:miter;stroke-opacity:1.0000000"
       d="M -149.13260,89.496345 L -93.370499,89.496345 C -87.737649,89.496345 -81.421487,83.180146 -81.421487,77.547322 L -81.421487,49.666279 L -149.13260,89.496345 z "
       id="path1710"
       sodipodi:nodetypes="czzcc" />
    <path
       d="M -142.51273,66.787503 L -142.51273,80.697806 C -142.51273,92.208525 -123.82566,101.55209 -100.80411,101.55209 C -77.782642,101.55209 -59.095580,92.208525 -59.095580,80.697806 L -59.095580,66.787503 L -142.51273,66.787503 z "
       style="fill:#d1940c;fill-opacity:1.0000000;fill-rule:evenodd;stroke:none;stroke-width:1.6790445;stroke-linecap:butt;stroke-linejoin:miter;stroke-miterlimit:4.0000000;stroke-opacity:1.0000000"
       id="path3867" />
    <path
       d="M -142.51273,66.787503 L -142.51273,80.697806 C -142.51273,92.208525 -123.82566,101.55209 -100.80411,101.55209 L -100.80713,66.787503 L -142.51273,66.787503 z "
       style="fill:#990000;fill-opacity:1.0000000;fill-rule:evenodd;stroke:none;stroke-width:1.6790445;stroke-linecap:butt;stroke-linejoin:miter;stroke-miterlimit:4.0000000;stroke-opacity:1.0000000"
       id="path3869" />
    <path
       d="M -100.80704,66.787437 L -142.67033,66.787437 C -142.67033,61.032081 -137.99934,55.818901 -130.45057,52.044550 C -122.90188,48.270199 -112.47542,45.934687 -100.96473,45.934687 C -89.453949,45.934687 -79.027575,48.270199 -71.478805,52.044550 L -100.80704,66.787437 z "
       style="fill:#267726;fill-opacity:1.0000000;fill-rule:evenodd;stroke:none;stroke-width:1.1872618;stroke-linecap:butt;stroke-linejoin:miter;stroke-miterlimit:4.0000000;stroke-opacity:1.0000000"
       id="path3870" />
    <path
       d="M -100.80704,87.640186 C -112.31782,87.640186 -122.90188,85.304674 -130.45057,81.530332 C -137.99934,77.755990 -142.67033,72.542801 -142.67033,66.787437 L -100.80704,66.787437 L -100.80704,87.640186 z "
       style="fill:#df421e;fill-opacity:1.0000000;fill-rule:evenodd;stroke:none;stroke-width:1.1872618;stroke-linecap:butt;stroke-linejoin:miter;stroke-miterlimit:4.0000000;stroke-opacity:1.0000000"
       id="path3871" />
    <path
       d="M -59.259040,66.787437 C -59.259040,72.542801 -63.930130,77.755990 -71.478805,81.530332 C -79.027575,85.304674 -89.296351,87.640186 -100.80704,87.640186 L -100.80704,66.787437 L -71.478805,52.044550 C -63.930130,55.818901 -59.259040,61.032081 -59.259040,66.787437 z "
       style="fill:#eed680;fill-opacity:1.0000000;fill-rule:evenodd;stroke:none;stroke-width:1.1872618;stroke-linecap:butt;stroke-linejoin:miter;stroke-miterlimit:4.0000000;stroke-opacity:1.0000000"
       id="path3872" />
    <path
       style="opacity:0.46153846;fill:url(#linearGradient1897);fill-opacity:1.0000000;fill-rule:evenodd;stroke:none;stroke-width:2.5000000;stroke-linecap:butt;stroke-linejoin:miter;stroke-miterlimit:4.0000000;stroke-dashoffset:0.0000000;stroke-opacity:1.0000000"
       d="M -138.65501,66.864905 C -138.65501,76.767245 -122.22615,84.803930 -101.98346,84.803930 C -81.740764,84.803930 -65.311910,76.767245 -65.311910,66.864905 C -65.311910,56.962565 -81.740764,48.925882 -101.98346,48.925882 C -122.22615,48.925882 -138.65501,56.962565 -138.65501,66.864905 z "
       id="path164" />
    <path
       style="opacity:0.31952664;fill:url(#linearGradient1899);fill-opacity:1.0000000;fill-rule:evenodd;stroke:none;stroke-width:2.5000000;stroke-linecap:butt;stroke-linejoin:miter;stroke-miterlimit:4.0000000;stroke-dashoffset:0.0000000;stroke-opacity:1.0000000"
       d="M -65.311910,66.864905 C -65.311910,76.767245 -81.740767,84.803930 -101.98346,84.803930 C -122.22616,84.803930 -138.65501,76.767245 -138.65501,66.864905 C -138.65501,56.962565 -122.22616,48.925882 -101.98346,48.925882 C -81.740767,48.925882 -65.311910,56.962565 -65.311910,66.864905 z "
       id="path170" />
  </g>
  <path
     id="path438"
     style="fill:url(#linearGradient1479);fill-opacity:1.0000000;fill-rule:evenodd;stroke:none;stroke-width:2.5000000;stroke-linecap:butt;stroke-linejoin:miter;stroke-miterlimit:4.0000000;stroke-opacity:1.0000000"
     d="M 10.107514,8.5452480 L 10.107514,124.27826 L 116.88868,124.27826 L 115.82682,37.478501 L 86.994283,8.5452480 L 10.107514,8.5452480 z " />
  <path
     id="path91"
     style="fill:url(#linearGradient1473);fill-opacity:1.0000000;fill-rule:evenodd;stroke:none;stroke-width:2.5000000;stroke-linecap:butt;stroke-linejoin:miter;stroke-miterlimit:4.0000000;stroke-opacity:1.0000000"
     d="M 10.107514,3.5133780 L 10.107514,124.27826 L 120.80865,124.27826 L 120.80865,33.704598 L 90.617434,3.5133780 L 10.107514,3.5133780 z " />
  <path
     id="path6764"
     style="fill:#f6f6f6;fill-opacity:1.0000000;fill-rule:evenodd;stroke:none;stroke-width:2.5000000;stroke-linecap:butt;stroke-linejoin:bevel;stroke-miterlimit:4.0000000;stroke-opacity:1.0000000"
     d="M 90.617434,3.5133780 L 90.617434,33.704598 L 120.80865,33.704598 L 90.617434,3.5133780 z " />
  <path
     id="path6770"
     style="fill:url(#linearGradient1463);fill-opacity:1.0000000;fill-rule:evenodd;stroke:none;stroke-width:2.5000000;stroke-linecap:butt;stroke-linejoin:bevel;stroke-miterlimit:4.0000000;stroke-opacity:1.0000000"
     d="M 90.617434,3.5133780 L 90.617434,33.704598 L 120.80865,33.704598 L 90.617434,3.5133780 z " />
  <path
     id="path11"
     style="fill:url(#linearGradient1459);fill-opacity:1.0000000;fill-rule:evenodd;stroke:none;stroke-width:0.25000000pt;stroke-linecap:butt;stroke-linejoin:miter;stroke-opacity:1.0000000"
     d="M 90.617434,3.5133780 L 80.553694,3.5133780 L 90.617434,33.704598 L 90.617434,3.5133780 z " />
  <path
     id="path25884"
     style="fill:url(#linearGradient1455);fill-opacity:1.0000000;fill-rule:evenodd;stroke:none;stroke-width:0.25000000pt;stroke-linecap:butt;stroke-linejoin:miter;stroke-opacity:1.0000000"
     d="M 120.80865,33.704598 L 120.80865,43.768338 L 90.617430,33.704598 L 120.80865,33.704598 z " />
</svg>
