<?xml version="1.0" encoding="UTF-8" standalone="no"?>
<!-- Created with Inkscape (http://www.inkscape.org/) -->
<svg
   xmlns:dc="http://purl.org/dc/elements/1.1/"
   xmlns:cc="http://web.resource.org/cc/"
   xmlns:rdf="http://www.w3.org/1999/02/22-rdf-syntax-ns#"
   xmlns:svg="http://www.w3.org/2000/svg"
   xmlns="http://www.w3.org/2000/svg"
   xmlns:xlink="http://www.w3.org/1999/xlink"
   xmlns:sodipodi="http://sodipodi.sourceforge.net/DTD/sodipodi-0.dtd"
   xmlns:inkscape="http://www.inkscape.org/namespaces/inkscape"
   width="48"
   height="48"
   id="svg11088"
   sodipodi:version="0.32"
   inkscape:version="0.45"
   version="1.0"
   sodipodi:docbase="/var/www/html/proyecto9/images/default"
   sodipodi:docname="finanzas.svg"
   inkscape:output_extension="org.inkscape.output.svg.inkscape"
   inkscape:export-filename="/var/www/html/proyecto9/images/finanzas.png"
   inkscape:export-xdpi="90"
   inkscape:export-ydpi="90"
   sodipodi:modified="true">
  <defs
     id="defs11090">
    <linearGradient
       inkscape:collect="always"
       id="linearGradient4350">
      <stop
         style="stop-color:#000000;stop-opacity:0.45599997"
         offset="0"
         id="stop4352" />
      <stop
         style="stop-color:#000000;stop-opacity:0;"
         offset="1"
         id="stop4354" />
    </linearGradient>
    <linearGradient
       inkscape:collect="always"
       xlink:href="#linearGradient4350"
       id="linearGradient4356"
       x1="-111.23438"
       y1="-24.719818"
       x2="-111.23438"
       y2="88.000000"
       gradientUnits="userSpaceOnUse"
       gradientTransform="matrix(0.841776,0,0,0.841776,89.412285,-4.9594331)" />
    <linearGradient
       id="TransparentWhite">
      <stop
         style="stop-color:#ffffff;stop-opacity:0;"
         offset="0"
         id="stopwhitefull" />
      <stop
         style="stop-color:#ffffff;stop-opacity:1;"
         offset="1"
         id="stopwhitetransparent" />
    </linearGradient>
    <linearGradient
       inkscape:collect="always"
       xlink:href="#TransparentWhite"
       id="linearGradient2141"
       gradientUnits="userSpaceOnUse"
       gradientTransform="matrix(1.662137,0,0,0.813086,-145.5801,-39.9633)"
       x1="37.356335"
       y1="126.20204"
       x2="55.953182"
       y2="125.81947" />
    <linearGradient
       id="linearGradient6">
      <stop
         style="stop-color:#ffffff;stop-opacity:1.0000000;"
         offset="0.0000000"
         id="stop7" />
      <stop
         style="stop-color:#ffffff;stop-opacity:0.0000000;"
         offset="1.0000000"
         id="stop8" />
    </linearGradient>
    <linearGradient
       inkscape:collect="always"
       xlink:href="#linearGradient6"
       id="linearGradient2139"
       gradientUnits="userSpaceOnUse"
       gradientTransform="matrix(1.429767,0,0,0.699415,-143.5,14.68126)"
       x1="6.6759928"
       y1="68.139067"
       x2="63.592011"
       y2="68.139067" />
    <linearGradient
       id="WhiteTransparent">
      <stop
         id="stopWhiteFull"
         offset="0"
         style="stop-color:#ffffff;stop-opacity:1;" />
      <stop
         id="stopWhiteTransparent"
         offset="1"
         style="stop-color:#ffffff;stop-opacity:0;" />
    </linearGradient>
    <linearGradient
       inkscape:collect="always"
       xlink:href="#WhiteTransparent"
       id="linearGradient2137"
       gradientUnits="userSpaceOnUse"
       gradientTransform="matrix(1.152407,0,0,0.677887,-180.9346,-27.4522)"
       x1="203.22814"
       y1="283.58530"
       x2="64.171749"
       y2="139.44981" />
    <linearGradient
       id="XMLID_28_"
       gradientUnits="userSpaceOnUse"
       x1="62.9995"
       y1="57"
       x2="62.9995"
       y2="107">
		<stop
   offset="0"
   style="stop-color:#F8A364"
   id="stop18594" />

		<stop
   offset="0.5697"
   style="stop-color:#F8A053"
   id="stop18596" />

		<stop
   offset="1"
   style="stop-color:#F89F4C"
   id="stop18598" />

	</linearGradient>
    <linearGradient
       id="XMLID_27_"
       gradientUnits="userSpaceOnUse"
       x1="41.9995"
       y1="40"
       x2="41.9995"
       y2="108">
		<stop
   offset="0"
   style="stop-color:#3C3C3C"
   id="stop18551" />

		<stop
   offset="0.1364"
   style="stop-color:#363636"
   id="stop18553" />

		<stop
   offset="0.6449"
   style="stop-color:#232323"
   id="stop18555" />

		<stop
   offset="1"
   style="stop-color:#1C1C1C"
   id="stop18557" />

	</linearGradient>
    <linearGradient
       id="XMLID_26_"
       gradientUnits="userSpaceOnUse"
       x1="104.9995"
       y1="47.3906"
       x2="104.9995"
       y2="114.3159">
		<stop
   offset="0"
   style="stop-color:#3274C1"
   id="stop18538" />

		<stop
   offset="0.3905"
   style="stop-color:#3F90D1"
   id="stop18540" />

		<stop
   offset="0.7497"
   style="stop-color:#47A3DB"
   id="stop18542" />

		<stop
   offset="1"
   style="stop-color:#4AAADF"
   id="stop18544" />

	</linearGradient>
    <linearGradient
       id="XMLID_25_"
       gradientUnits="userSpaceOnUse"
       x1="83.9995"
       y1="70.7656"
       x2="83.9995"
       y2="113.3209">
		<stop
   offset="0"
   style="stop-color:#E00000"
   id="stop18529" />

		<stop
   offset="0.4113"
   style="stop-color:#E80000"
   id="stop18531" />

		<stop
   offset="1"
   style="stop-color:#EF0000"
   id="stop18533" />

	</linearGradient>
    <linearGradient
       id="XMLID_24_"
       gradientUnits="userSpaceOnUse"
       x1="62.9995"
       y1="56"
       x2="62.9995"
       y2="113">
		<stop
   offset="0"
   style="stop-color:#F36700"
   id="stop18518" />

		<stop
   offset="0.3322"
   style="stop-color:#F67C00"
   id="stop18520" />

		<stop
   offset="0.7254"
   style="stop-color:#F88F00"
   id="stop18522" />

		<stop
   offset="1"
   style="stop-color:#F99600"
   id="stop18524" />

	</linearGradient>
    <linearGradient
       id="XMLID_23_"
       gradientUnits="userSpaceOnUse"
       x1="79.4995"
       y1="41.0361"
       x2="79.4995"
       y2="111.4967">
		<stop
   offset="0"
   style="stop-color:#3C3C3C"
   id="stop18507" />

		<stop
   offset="0.1364"
   style="stop-color:#363636"
   id="stop18509" />

		<stop
   offset="0.6449"
   style="stop-color:#232323"
   id="stop18511" />

		<stop
   offset="1"
   style="stop-color:#1C1C1C"
   id="stop18513" />

	</linearGradient>
    <linearGradient
       id="XMLID_22_"
       gradientUnits="userSpaceOnUse"
       x1="85.4995"
       y1="20"
       x2="85.4995"
       y2="80">
		<stop
   offset="0"
   style="stop-color:#B0B0B0"
   id="stop18316" />

		<stop
   offset="0.4113"
   style="stop-color:#A8A8A8"
   id="stop18318" />

		<stop
   offset="1"
   style="stop-color:#A1A2A1"
   id="stop18320" />

	</linearGradient>
    <linearGradient
       id="XMLID_21_"
       gradientUnits="userSpaceOnUse"
       x1="58.4995"
       y1="20"
       x2="58.4995"
       y2="80">
		<stop
   offset="0"
   style="stop-color:#B0B0B0"
   id="stop18307" />

		<stop
   offset="0.4113"
   style="stop-color:#A8A8A8"
   id="stop18309" />

		<stop
   offset="1"
   style="stop-color:#A1A2A1"
   id="stop18311" />

	</linearGradient>
    <linearGradient
       id="XMLID_20_"
       gradientUnits="userSpaceOnUse"
       x1="30.4995"
       y1="20"
       x2="30.4995"
       y2="80">
		<stop
   offset="0"
   style="stop-color:#B0B0B0"
   id="stop18298" />

		<stop
   offset="0.4113"
   style="stop-color:#A8A8A8"
   id="stop18300" />

		<stop
   offset="1"
   style="stop-color:#A1A2A1"
   id="stop18302" />

	</linearGradient>
    <linearGradient
       id="XMLID_19_"
       gradientUnits="userSpaceOnUse"
       x1="24.4995"
       y1="20"
       x2="24.4995"
       y2="80">
		<stop
   offset="0"
   style="stop-color:#B0B0B0"
   id="stop18289" />

		<stop
   offset="0.4113"
   style="stop-color:#A8A8A8"
   id="stop18291" />

		<stop
   offset="1"
   style="stop-color:#A1A2A1"
   id="stop18293" />

	</linearGradient>
    <linearGradient
       id="XMLID_18_"
       gradientUnits="userSpaceOnUse"
       x1="18.4995"
       y1="20"
       x2="18.4995"
       y2="80">
		<stop
   offset="0"
   style="stop-color:#B0B0B0"
   id="stop18280" />

		<stop
   offset="0.4113"
   style="stop-color:#A8A8A8"
   id="stop18282" />

		<stop
   offset="1"
   style="stop-color:#A1A2A1"
   id="stop18284" />

	</linearGradient>
    <linearGradient
       id="XMLID_17_"
       gradientUnits="userSpaceOnUse"
       x1="62.999"
       y1="35"
       x2="62.999"
       y2="71.0003">
		<stop
   offset="0"
   style="stop-color:#B0B0B0"
   id="stop18257" />

		<stop
   offset="0.4113"
   style="stop-color:#A8A8A8"
   id="stop18259" />

		<stop
   offset="1"
   style="stop-color:#A1A2A1"
   id="stop18261" />

	</linearGradient>
    <linearGradient
       id="XMLID_16_"
       gradientUnits="userSpaceOnUse"
       x1="62.9995"
       y1="10"
       x2="62.9995"
       y2="84">
		<stop
   offset="0"
   style="stop-color:#FAFAFA"
   id="stop18246" />

		<stop
   offset="0.1867"
   style="stop-color:#F1F1F1"
   id="stop18248" />

		<stop
   offset="0.6656"
   style="stop-color:#DFDEDF"
   id="stop18250" />

		<stop
   offset="1"
   style="stop-color:#D8D7D8"
   id="stop18252" />

	</linearGradient>
    <linearGradient
       id="XMLID_15_"
       gradientUnits="userSpaceOnUse"
       x1="62.9995"
       y1="8"
       x2="62.9995"
       y2="88.7378">
		<stop
   offset="0"
   style="stop-color:#FFFFFF"
   id="stop18237" />

		<stop
   offset="0.514"
   style="stop-color:#F2F2F2"
   id="stop18239" />

		<stop
   offset="1"
   style="stop-color:#EBEBEB"
   id="stop18241" />

	</linearGradient>
    <radialGradient
       gradientUnits="userSpaceOnUse"
       fy="20.438499"
       fx="3.3306"
       r="14.7268"
       cy="20.438499"
       cx="3.3306"
       id="aigrd3">
						<stop
   id="stop10661"
   style="stop-color:#0C0B0B"
   offset="0" />

						<stop
   id="stop10663"
   style="stop-color:#554C4D"
   offset="1" />

					</radialGradient>
    <linearGradient
       y2="33.057201"
       x2="45.388"
       y1="46.936501"
       x1="22.183599"
       gradientUnits="userSpaceOnUse"
       id="aigrd2">
						<stop
   id="stop10654"
   style="stop-color:#0C0B0B"
   offset="0" />

						<stop
   id="stop10656"
   style="stop-color:#251F20"
   offset="1" />

					</linearGradient>
    <radialGradient
       gradientUnits="userSpaceOnUse"
       fy="17.6455"
       fx="18.209999"
       r="25.677401"
       cy="17.6455"
       cx="18.209999"
       id="aigrd1">
						<stop
   id="stop10635"
   style="stop-color:#F9FAE9"
   offset="0" />

						<stop
   id="stop10637"
   style="stop-color:#F5C417"
   offset="0.5056" />

						<stop
   id="stop10639"
   style="stop-color:#EEB817"
   offset="0.6035" />

						<stop
   id="stop10641"
   style="stop-color:#DB9714"
   offset="0.7662" />

						<stop
   id="stop10643"
   style="stop-color:#BD6810"
   offset="0.9726" />

						<stop
   id="stop10645"
   style="stop-color:#B9620F"
   offset="1" />

					</radialGradient>
    <linearGradient
       y2="9.932"
       x2="15.9825"
       y1="22.2437"
       x1="23.2246"
       gradientUnits="userSpaceOnUse"
       id="aigrd17"
       gradientTransform="matrix(1.0689033,0,0,1.0362013,-1.9456,-1.0869567)">
			<stop
   id="stop10917"
   style="stop-color:#FFFFFF"
   offset="0" />

			<stop
   id="stop10919"
   style="stop-color:#FFFFFF"
   offset="1" />

		</linearGradient>
    <linearGradient
       inkscape:collect="always"
       xlink:href="#XMLID_17_"
       id="linearGradient33714"
       gradientUnits="userSpaceOnUse"
       x1="62.999"
       y1="35"
       x2="62.999"
       y2="71.0003" />
    <linearGradient
       inkscape:collect="always"
       xlink:href="#XMLID_18_"
       id="linearGradient33716"
       gradientUnits="userSpaceOnUse"
       x1="18.4995"
       y1="20"
       x2="18.4995"
       y2="80" />
    <linearGradient
       inkscape:collect="always"
       xlink:href="#XMLID_19_"
       id="linearGradient33718"
       gradientUnits="userSpaceOnUse"
       x1="24.4995"
       y1="20"
       x2="24.4995"
       y2="80" />
    <linearGradient
       inkscape:collect="always"
       xlink:href="#XMLID_20_"
       id="linearGradient33720"
       gradientUnits="userSpaceOnUse"
       x1="30.4995"
       y1="20"
       x2="30.4995"
       y2="80" />
    <linearGradient
       inkscape:collect="always"
       xlink:href="#XMLID_21_"
       id="linearGradient33722"
       gradientUnits="userSpaceOnUse"
       x1="58.4995"
       y1="20"
       x2="58.4995"
       y2="80" />
    <linearGradient
       inkscape:collect="always"
       xlink:href="#XMLID_22_"
       id="linearGradient33724"
       gradientUnits="userSpaceOnUse"
       x1="85.4995"
       y1="20"
       x2="85.4995"
       y2="80" />
    <linearGradient
       inkscape:collect="always"
       xlink:href="#linearGradient4350"
       id="linearGradient39539"
       gradientUnits="userSpaceOnUse"
       gradientTransform="matrix(0.841776,0,0,0.841776,89.412285,-4.9594331)"
       x1="-111.23438"
       y1="-24.719818"
       x2="-111.23438"
       y2="88.000000" />
    <linearGradient
       inkscape:collect="always"
       xlink:href="#WhiteTransparent"
       id="linearGradient39541"
       gradientUnits="userSpaceOnUse"
       gradientTransform="matrix(1.152407,0,0,0.677887,-180.9346,-27.4522)"
       x1="203.22814"
       y1="283.58530"
       x2="64.171749"
       y2="139.44981" />
    <linearGradient
       inkscape:collect="always"
       xlink:href="#linearGradient6"
       id="linearGradient39543"
       gradientUnits="userSpaceOnUse"
       gradientTransform="matrix(1.429767,0,0,0.699415,-143.5,14.68126)"
       x1="6.6759928"
       y1="68.139067"
       x2="63.592011"
       y2="68.139067" />
    <linearGradient
       inkscape:collect="always"
       xlink:href="#TransparentWhite"
       id="linearGradient39545"
       gradientUnits="userSpaceOnUse"
       gradientTransform="matrix(1.662137,0,0,0.813086,-145.5801,-39.9633)"
       x1="37.356335"
       y1="126.20204"
       x2="55.953182"
       y2="125.81947" />
  </defs>
  <sodipodi:namedview
     id="base"
     pagecolor="#ffffff"
     bordercolor="#666666"
     borderopacity="1.0"
     inkscape:pageopacity="0.0"
     inkscape:pageshadow="2"
     inkscape:zoom="4.2395833"
     inkscape:cx="27.136216"
     inkscape:cy="14.493591"
     inkscape:document-units="px"
     inkscape:current-layer="layer1"
     width="48px"
     height="48px"
     inkscape:window-width="877"
     inkscape:window-height="624"
     inkscape:window-x="0"
     inkscape:window-y="48" />
  <metadata
     id="metadata11093">
    <rdf:RDF>
      <cc:Work
         rdf:about="">
        <dc:format>image/svg+xml</dc:format>
        <dc:type
           rdf:resource="http://purl.org/dc/dcmitype/StillImage" />
      </cc:Work>
    </rdf:RDF>
  </metadata>
  <g
     inkscape:label="Capa 1"
     inkscape:groupmode="layer"
     id="layer1">
    <g
       transform="matrix(1.0689033,0,0,1.0362013,-1.8195377,-0.9647514)"
       style="fill:#ffffff;fill-rule:nonzero;stroke:#000000;stroke-miterlimit:4"
       id="g10626">
			<g
   id="g10628">
				<g
   id="g10630">
					<path
   id="path10632"
   d="M 2.2,24.6 C 2.2,12.5 12,2.7 24.1,2.7 C 36.2,2.7 46,12.5 46,24.6 C 46,36.7 36.2,46.5 24.1,46.5 C 12,46.5 2.2,36.7 2.2,24.6 z "
   style="fill:#000000;stroke:none" />

					<radialGradient
   gradientUnits="userSpaceOnUse"
   fy="17.6455"
   fx="18.209999"
   r="25.677401"
   cy="17.6455"
   cx="18.209999"
   id="radialGradient11116">
						<stop
   id="stop11118"
   style="stop-color:#F9FAE9"
   offset="0" />

						<stop
   id="stop11120"
   style="stop-color:#F5C417"
   offset="0.5056" />

						<stop
   id="stop11122"
   style="stop-color:#EEB817"
   offset="0.6035" />

						<stop
   id="stop11124"
   style="stop-color:#DB9714"
   offset="0.7662" />

						<stop
   id="stop11126"
   style="stop-color:#BD6810"
   offset="0.9726" />

						<stop
   id="stop11128"
   style="stop-color:#B9620F"
   offset="1" />

					</radialGradient>

					<path
   id="path10647"
   d="M 3.6,24.7 C 3.6,36 12.8,45.2 24.1,45.2 C 35.4,45.2 44.6,36 44.6,24.7 C 44.6,13.4 35.4,4.2 24.1,4.2 C 12.8,4.2 3.6,13.4 3.6,24.7 z "
   style="fill:url(#aigrd1);fill-rule:evenodd;stroke:none" />

					<path
   id="path10649"
   d="M 23.4,25.1 L 23.4,25.1 L 23.4,25.1 L 23.4,25.1 L 23.4,25.1 z "
   style="fill:#0c0b0b;stroke:none" />

					<path
   id="path10651"
   d="M 5.5,24.6 C 5.5,34.9 13.8,43.2 24.1,43.2 C 34.4,43.2 42.7,34.9 42.7,24.6 C 42.8,14.3 34.4,6 24.1,6 C 13.8,6 5.5,14.3 5.5,24.6 M 2,24.6 C 2,12.4 11.9,2.5 24.1,2.5 C 36.3,2.5 46.2,12.4 46.2,24.6 C 46.2,36.8 36.3,46.7 24.1,46.7 C 11.9,46.7 2,36.8 2,24.6 z "
   style="fill:#000000;fill-rule:evenodd;stroke:none" />

					<linearGradient
   y2="33.057201"
   x2="45.388"
   y1="46.936501"
   x1="22.183599"
   gradientUnits="userSpaceOnUse"
   id="linearGradient11133">
						<stop
   id="stop11135"
   style="stop-color:#0C0B0B"
   offset="0" />

						<stop
   id="stop11137"
   style="stop-color:#251F20"
   offset="1" />

					</linearGradient>

					<path
   id="path10658"
   d="M 44.1,30.7 C 41.3,40.2 32.1,47 20.8,45.3 L 21.2,44.7 C 32.2,45.4 40.2,39.3 43.4,30.8 L 44.1,30.7 L 44.1,30.7 z "
   style="fill:url(#aigrd2);fill-rule:evenodd;stroke:none" />

					<radialGradient
   gradientUnits="userSpaceOnUse"
   fy="20.438499"
   fx="3.3306"
   r="14.7268"
   cy="20.438499"
   cx="3.3306"
   id="radialGradient11140">
						<stop
   id="stop11142"
   style="stop-color:#0C0B0B"
   offset="0" />

						<stop
   id="stop11144"
   style="stop-color:#554C4D"
   offset="1" />

					</radialGradient>

					<path
   id="path10665"
   d="M 10.9,7.8 C 7.8,9.8 4.1,15 3.3,20.4 C 4.2,20.2 3.4,18.4 4.5,18.4 C 5.1,15.8 5.1,14 10.5,8.2 C 10.5,8.1 11.2,7.8 10.8,7.7 L 10.9,7.8 z "
   style="fill:url(#aigrd3);fill-rule:evenodd;stroke:none" />

				</g>

			</g>

		</g>
    <g
       id="g39515"
       transform="matrix(0.3664129,0,0,0.269884,24.663957,13.375029)">
      <path
         id="rect2143"
         d="M -36.670028,-6.8797361 L -36.670028,0.30166745 L -17.782675,0.30166745 L -17.782675,-6.8797361 L -36.670028,-6.8797361 z M -14.099904,-6.8797361 L -14.099904,0.30166745 L 3.3669513,0.30166745 L 3.3669513,-6.8797361 L -14.099904,-6.8797361 z M 7.0497223,-6.8797361 L 7.0497223,0.30166745 L 28.225653,0.30166745 L 28.225653,-6.8797361 L 7.0497223,-6.8797361 z M -36.670028,4.0107434 L -36.670028,10.402981 L -17.782675,10.402981 L -17.782675,4.0107434 L -36.670028,4.0107434 z M -14.099904,4.0107434 L -14.099904,10.402981 L 3.3669513,10.402981 L 3.3669513,4.0107434 L -14.099904,4.0107434 z M 7.0497223,4.0107434 L 7.0497223,10.402981 L 28.225653,10.402981 L 28.225653,4.0107434 L 7.0497223,4.0107434 z M -36.670028,14.112057 L -36.670028,20.504295 L -17.782675,20.504295 L -17.782675,14.112057 L -36.670028,14.112057 z M -14.099904,14.112057 L -14.099904,20.504295 L 3.3669513,20.504295 L 3.3669513,14.112057 L -14.099904,14.112057 z M 7.0497223,14.112057 L 7.0497223,20.504295 L 28.225653,20.504295 L 28.225653,14.112057 L 7.0497223,14.112057 z M -36.670028,24.213371 L -36.670028,30.605609 L -17.782675,30.605609 L -17.782675,24.213371 L -36.670028,24.213371 z M -14.099904,24.213371 L -14.099904,30.605609 L 3.3669513,30.605609 L 3.3669513,24.213371 L -14.099904,24.213371 z M 7.0497223,24.213371 L 7.0497223,30.605609 L 28.225653,30.605609 L 28.225653,24.213371 L 7.0497223,24.213371 z M -36.670028,34.314685 L -36.670028,40.706923 L -17.782675,40.706923 L -17.782675,34.314685 L -36.670028,34.314685 z M -14.099904,34.314685 L -14.099904,40.706923 L 3.3669513,40.706923 L 3.3669513,34.314685 L -14.099904,34.314685 z M 7.0497223,34.314685 L 7.0497223,40.706923 L 28.225653,40.706923 L 28.225653,34.314685 L 7.0497223,34.314685 z M -36.670028,44.415999 L -36.670028,50.808237 L -17.782675,50.808237 L -17.782675,44.415999 L -36.670028,44.415999 z M -14.099904,44.415999 L -14.099904,50.808237 L 3.3669513,50.808237 L 3.3669513,44.415999 L -14.099904,44.415999 z M 7.0497223,44.415999 L 7.0497223,50.808237 L 28.225653,50.808237 L 28.225653,44.415999 L 7.0497223,44.415999 z M -36.670028,54.517313 L -36.670028,59.225999 L -17.782675,59.225999 L -17.782675,54.517313 L -36.670028,54.517313 z M -14.099904,54.517313 L -14.099904,59.225999 L 3.3669513,59.225999 L 3.3669513,54.517313 L -14.099904,54.517313 z M 7.0497223,54.517313 L 7.0497223,59.225999 L 28.225653,59.225999 L 28.225653,54.517313 L 7.0497223,54.517313 z M -36.670028,62.935068 L -36.670028,69.116867 L -17.782675,69.116867 L -17.782675,62.935068 L -36.670028,62.935068 z M -14.099904,62.935068 L -14.099904,69.116867 L 3.3669513,69.116867 L 3.3669513,62.935068 L -14.099904,62.935068 z M 7.0497223,62.935068 L 7.0497223,69.116867 L 28.225653,69.116867 L 28.225653,62.935068 L 7.0497223,62.935068 z "
         style="opacity:1;color:#000000;fill:url(#linearGradient39539);fill-opacity:1;fill-rule:evenodd;stroke:none;stroke-width:2;stroke-linecap:round;stroke-linejoin:round;marker:none;marker-start:none;marker-mid:none;marker-end:none;stroke-miterlimit:4;stroke-dasharray:none;stroke-dashoffset:0;stroke-opacity:1;visibility:visible;display:inline;overflow:visible" />
      <g
         transform="matrix(1,0,0,1.109044,105.17169,43.802397)"
         id="g2115">
        <g
           id="g3125"
           transform="matrix(1,-2.33906e-2,0,0.784103,-61.3731,-46.00625)"
           style="fill:#000000;fill-opacity:1;stroke:#386781;stroke-width:5.0095458;stroke-linecap:round;stroke-linejoin:round;stroke-miterlimit:4;stroke-dasharray:none;stroke-opacity:1">
          <g
             id="g3127"
             transform="matrix(0.832021,0,0,0.832021,31.13414,27.25426)"
             style="fill:#000000;fill-opacity:1;stroke:#386781;stroke-width:6.02093697;stroke-linecap:round;stroke-linejoin:round;stroke-miterlimit:4;stroke-dasharray:none;stroke-opacity:1">
            <path
               style="fill:#000000;fill-opacity:1;fill-rule:evenodd;stroke:#386781;stroke-width:6.02093697;stroke-linecap:round;stroke-linejoin:round;stroke-miterlimit:4;stroke-dasharray:none;stroke-opacity:1"
               d="M -136.49722,84.100073 L -83.710231,87.449075 C -77.460855,87.845559 -70.4524,80.441039 -70.4524,74.19123 L -70.4524,43.256274 L -136.49722,84.100073 z "
               id="path3129"
               sodipodi:nodetypes="czzcc" />
            <path
               d="M -138.23519,62.25285 L -138.23519,77.686799 C -138.23519,90.458329 -117.50126,100.82533 -91.958072,100.82533 C -66.414979,100.82533 -45.681051,90.458329 -45.681051,77.686799 L -45.681051,62.25285 L -138.23519,62.25285 z "
               style="fill:#000000;fill-opacity:1;fill-rule:evenodd;stroke:#386781;stroke-width:6.02093697;stroke-linecap:round;stroke-linejoin:round;stroke-miterlimit:4;stroke-dasharray:none;stroke-opacity:1"
               id="path3131" />
            <path
               d="M -138.23519,62.25285 L -138.23519,77.686799 C -138.23519,90.458329 -117.50126,100.82533 -91.958072,100.82533 L -91.961422,62.25285 L -138.23519,62.25285 z "
               style="fill:#000000;fill-opacity:1;fill-rule:evenodd;stroke:#386781;stroke-width:6.02093697;stroke-linecap:round;stroke-linejoin:round;stroke-miterlimit:4;stroke-dasharray:none;stroke-opacity:1"
               id="path3133" />
            <path
               d="M -91.961329,62.252776 L -138.41005,62.252776 C -138.41005,55.867015 -133.22743,50.082815 -124.85181,45.895046 C -116.47629,41.707276 -104.90778,39.115947 -92.136283,39.115947 C -79.364687,39.115947 -67.796273,41.707276 -59.42066,45.895046 L -91.961329,62.252776 z "
               style="fill:#000000;fill-opacity:1;fill-rule:evenodd;stroke:#386781;stroke-width:6.02093697;stroke-linecap:round;stroke-linejoin:round;stroke-miterlimit:4;stroke-dasharray:none;stroke-opacity:1"
               id="path3135" />
            <path
               d="M -91.961329,85.389604 C -104.73292,85.389604 -116.47629,82.798275 -124.85181,78.610515 C -133.22743,74.422755 -138.41005,68.638546 -138.41005,62.252776 L -91.961329,62.252776 L -91.961329,85.389604 z "
               style="fill:#000000;fill-opacity:1;fill-rule:evenodd;stroke:#386781;stroke-width:6.02093697;stroke-linecap:round;stroke-linejoin:round;stroke-miterlimit:4;stroke-dasharray:none;stroke-opacity:1"
               id="path3137" />
            <path
               d="M -45.862425,62.252776 C -45.862425,68.638546 -51.04514,74.422755 -59.42066,78.610515 C -67.796273,82.798275 -79.189827,85.389604 -91.961329,85.389604 L -91.961329,62.252776 L -59.42066,45.895046 C -51.04514,50.082815 -45.862425,55.867015 -45.862425,62.252776 z "
               style="fill:#000000;fill-opacity:1;fill-rule:evenodd;stroke:#386781;stroke-width:6.02093697;stroke-linecap:round;stroke-linejoin:round;stroke-miterlimit:4;stroke-dasharray:none;stroke-opacity:1"
               id="path3139" />
            <path
               style="opacity:0.46153846;fill:#000000;fill-opacity:1;fill-rule:evenodd;stroke:#386781;stroke-width:6.02093697;stroke-linecap:round;stroke-linejoin:round;stroke-miterlimit:4;stroke-dasharray:none;stroke-dashoffset:0;stroke-opacity:1"
               d="M -133.95492,62.338729 C -133.95492,73.32571 -115.72655,82.242682 -93.266601,82.242682 C -70.806649,82.242682 -52.578289,73.32571 -52.578289,62.338729 C -52.578289,51.351749 -70.806649,42.434778 -93.266601,42.434778 C -115.72655,42.434778 -133.95492,51.351749 -133.95492,62.338729 z "
               id="path3141" />
            <path
               style="opacity:0.31952664;fill:#000000;fill-opacity:1;fill-rule:evenodd;stroke:#386781;stroke-width:6.02093697;stroke-linecap:round;stroke-linejoin:round;stroke-miterlimit:4;stroke-dasharray:none;stroke-dashoffset:0;stroke-opacity:1"
               d="M -52.578289,62.338729 C -52.578289,73.32571 -70.806652,82.242682 -93.266603,82.242682 C -115.72655,82.242682 -133.95492,73.32571 -133.95492,62.338729 C -133.95492,51.351749 -115.72655,42.434778 -93.266603,42.434778 C -70.806652,42.434778 -52.578289,51.351749 -52.578289,62.338729 z "
               id="path3143" />
          </g>
        </g>
        <g
           id="g173"
           transform="matrix(1,-2.33906e-2,0,0.784103,-61.3731,-46.00625)">
          <g
             id="g62"
             transform="matrix(0.832021,0,0,0.832021,31.13414,27.25426)">
            <path
               style="fill:url(#linearGradient39541);fill-opacity:1;fill-rule:evenodd;stroke:none;stroke-width:1pt;stroke-linecap:butt;stroke-linejoin:miter;stroke-opacity:1"
               d="M -136.49722,84.100073 L -83.710231,87.449075 C -77.460855,87.845559 -70.4524,80.441039 -70.4524,74.19123 L -70.4524,43.256274 L -136.49722,84.100073 z "
               id="path63"
               sodipodi:nodetypes="czzcc" />
            <path
               d="M -138.23519,62.25285 L -138.23519,77.686799 C -138.23519,90.458329 -117.50126,100.82533 -91.958072,100.82533 C -66.414979,100.82533 -45.681051,90.458329 -45.681051,77.686799 L -45.681051,62.25285 L -138.23519,62.25285 z "
               style="fill:#d1940c;fill-opacity:1;fill-rule:evenodd;stroke:none;stroke-width:1.67904449;stroke-linecap:butt;stroke-linejoin:miter;stroke-miterlimit:4;stroke-opacity:1"
               id="path64" />
            <path
               d="M -138.23519,62.25285 L -138.23519,77.686799 C -138.23519,90.458329 -117.50126,100.82533 -91.958072,100.82533 L -91.961422,62.25285 L -138.23519,62.25285 z "
               style="fill:#c70000;fill-opacity:1;fill-rule:evenodd;stroke:none;stroke-width:1.67904449;stroke-linecap:butt;stroke-linejoin:miter;stroke-miterlimit:4;stroke-opacity:1"
               id="path65" />
            <path
               d="M -91.961329,62.252776 L -138.41005,62.252776 C -138.41005,55.867015 -133.22743,50.082815 -124.85181,45.895046 C -116.47629,41.707276 -104.90778,39.115947 -92.136283,39.115947 C -79.364687,39.115947 -67.796273,41.707276 -59.42066,45.895046 L -91.961329,62.252776 z "
               style="fill:#3ab83a;fill-opacity:1;fill-rule:evenodd;stroke:none;stroke-width:1.18726182;stroke-linecap:butt;stroke-linejoin:miter;stroke-miterlimit:4;stroke-opacity:1"
               id="path66" />
            <path
               d="M -91.961329,85.389604 C -104.73292,85.389604 -116.47629,82.798275 -124.85181,78.610515 C -133.22743,74.422755 -138.41005,68.638546 -138.41005,62.252776 L -91.961329,62.252776 L -91.961329,85.389604 z "
               style="fill:#df191e;fill-opacity:1;fill-rule:evenodd;stroke:none;stroke-width:1.18726182;stroke-linecap:butt;stroke-linejoin:miter;stroke-miterlimit:4;stroke-opacity:1"
               id="path67" />
            <path
               d="M -45.862425,62.252776 C -45.862425,68.638546 -51.04514,74.422755 -59.42066,78.610515 C -67.796273,82.798275 -79.189827,85.389604 -91.961329,85.389604 L -91.961329,62.252776 L -59.42066,45.895046 C -51.04514,50.082815 -45.862425,55.867015 -45.862425,62.252776 z "
               style="fill:#eed600;fill-opacity:1;fill-rule:evenodd;stroke:none;stroke-width:1.18726182;stroke-linecap:butt;stroke-linejoin:miter;stroke-miterlimit:4;stroke-opacity:1"
               id="path68" />
            <path
               style="opacity:0.46153846;fill:url(#linearGradient39543);fill-opacity:1;fill-rule:evenodd;stroke:none;stroke-width:2.5;stroke-linecap:butt;stroke-linejoin:miter;stroke-miterlimit:4;stroke-dashoffset:0;stroke-opacity:1"
               d="M -133.95492,62.338729 C -133.95492,73.32571 -115.72655,82.242682 -93.266601,82.242682 C -70.806649,82.242682 -52.578289,73.32571 -52.578289,62.338729 C -52.578289,51.351749 -70.806649,42.434778 -93.266601,42.434778 C -115.72655,42.434778 -133.95492,51.351749 -133.95492,62.338729 z "
               id="path69" />
            <path
               style="opacity:0.31952664;fill:url(#linearGradient39545);fill-opacity:1;fill-rule:evenodd;stroke:none;stroke-width:2.5;stroke-linecap:butt;stroke-linejoin:miter;stroke-miterlimit:4;stroke-dashoffset:0;stroke-opacity:1"
               d="M -52.578289,62.338729 C -52.578289,73.32571 -70.806652,82.242682 -93.266603,82.242682 C -115.72655,82.242682 -133.95492,73.32571 -133.95492,62.338729 C -133.95492,51.351749 -115.72655,42.434778 -93.266603,42.434778 C -70.806652,42.434778 -52.578289,51.351749 -52.578289,62.338729 z "
               id="path70" />
          </g>
        </g>
      </g>
    </g>
    <path
       id="path10921"
       d="M 5.536722,28.030298 C 20.39448,34.040266 25.525216,11.761938 41.986326,19.118967 C 38.993397,10.104016 29.266378,4.8193893 19.646247,6.9954123 C 9.919227,9.2750551 3.719588,18.600867 5.536722,28.030298 z "
       style="opacity:0.46000001;fill:url(#aigrd17);fill-rule:evenodd;stroke:none;stroke-miterlimit:4" />
  </g>
</svg>
